<svg xmlns="http://www.w3.org/2000/svg" xmlns:xlink="http://www.w3.org/1999/xlink" width="2000" zoomAndPan="magnify" viewBox="0 0 1500 383.03998" height="500" preserveAspectRatio="xMidYMid meet" version="1.0"><defs><g/><clipPath id="a7515a40c8"><path d="M 410 0 L 1498.125 0 L 1498.125 374.0625 L 410 374.0625 Z M 410 0 " clip-rule="nonzero"/></clipPath><clipPath id="f61e8c4f43"><rect x="0" width="1089" y="0" height="375"/></clipPath><clipPath id="e9bc12005d"><path d="M 7.859375 3.457031 L 372.945312 3.457031 L 372.945312 371.535156 L 7.859375 371.535156 Z M 7.859375 3.457031 " clip-rule="nonzero"/></clipPath><clipPath id="cc99ed1391"><path d="M 92.710938 20.027344 C 67.824219 29.898438 47.269531 46.003906 33.484375 66.335938 C 17.316406 90.339844 12.890625 118.417969 10.09375 145.34375 C 6.6875 179.757812 7.085938 211.84375 11.007812 241.339844 C 14.476562 265.03125 18.53125 289.816406 32.980469 310.417969 C 50.308594 334.808594 77.960938 352.804688 113.109375 362.277344 C 135.707031 368.527344 162.09375 371.894531 189.492188 371.910156 C 206.917969 371.667969 224.3125 370.324219 241.386719 367.601562 C 284.085938 361.078125 317.101562 345.429688 339.070312 320.980469 C 342.019531 317.851562 344.953125 314.164062 347.335938 310.496094 C 361.941406 289.863281 366.464844 265.101562 369.628906 241.210938 C 373.46875 212.039062 373.890625 179.652344 370.664062 145.433594 C 368.199219 118.390625 363.492188 90.304688 347.285156 66.433594 C 333.675781 46.082031 312.992188 29.816406 288.351562 20.03125 C 268.46875 12.042969 245.902344 6.902344 220.9375 4.875 C 209.558594 3.832031 198.753906 3.320312 187.960938 3.363281 C 151.988281 3.324219 120.332031 8.96875 92.710938 20.027344 Z M 117.105469 347.769531 C 95.058594 341.507812 64.519531 328.855469 45.453125 301.746094 C 33.296875 283.84375 29.023438 261.003906 26.171875 239.503906 C 22.285156 211.117188 21.917969 180.136719 25.359375 146.828125 C 27.382812 121.863281 31.875 95.996094 45.910156 74.824219 C 57.835938 57.035156 75.957031 42.941406 98.113281 34.257812 C 123.808594 23.53125 154.105469 18.757812 188.136719 18.578125 C 198.375 18.550781 208.628906 19.078125 219.71875 19.855469 C 243.027344 21.929688 264.203125 26.835938 282.679688 34.035156 C 304.523438 42.796875 322.929688 56.917969 334.816406 75.105469 C 348.996094 95.992188 353.082031 121.882812 355.480469 146.714844 C 358.675781 179.828125 358.222656 211.109375 354.636719 239.441406 C 351.40625 261.121094 347.652344 283.921875 335.175781 301.726562 C 332.777344 304.84375 330.378906 307.957031 327.699219 310.804688 C 308.148438 332.691406 278.398438 346.582031 239.285156 352.722656 C 222.761719 355.425781 205.921875 356.757812 189.316406 356.695312 C 163.578125 356.628906 138.867188 353.765625 117.105469 347.769531 Z M 117.105469 347.769531 " clip-rule="nonzero"/></clipPath><linearGradient x1="-0.0891512" gradientTransform="matrix(-268.270349, 284.681577, -284.681577, -268.270349, 344.522456, 24.591197)" y1="0" x2="1.235749" gradientUnits="userSpaceOnUse" y2="0" id="65602e602d"><stop stop-opacity="1" stop-color="rgb(89.408875%, 98.039246%, 54.899597%)" offset="0"/><stop stop-opacity="1" stop-color="rgb(89.408875%, 98.039246%, 54.899597%)" offset="0.0625"/><stop stop-opacity="1" stop-color="rgb(89.294434%, 98.002625%, 54.478455%)" offset="0.0664062"/><stop stop-opacity="1" stop-color="rgb(89.181519%, 97.967529%, 54.057312%)" offset="0.0703125"/><stop stop-opacity="1" stop-color="rgb(88.885498%, 97.874451%, 52.967834%)" offset="0.0742188"/><stop stop-opacity="1" stop-color="rgb(88.591003%, 97.782898%, 51.879883%)" offset="0.078125"/><stop stop-opacity="1" stop-color="rgb(88.294983%, 97.689819%, 50.790405%)" offset="0.0820312"/><stop stop-opacity="1" stop-color="rgb(88.000488%, 97.598267%, 49.702454%)" offset="0.0859375"/><stop stop-opacity="1" stop-color="rgb(87.705994%, 97.506714%, 48.612976%)" offset="0.0898438"/><stop stop-opacity="1" stop-color="rgb(87.411499%, 97.415161%, 47.525024%)" offset="0.09375"/><stop stop-opacity="1" stop-color="rgb(87.115479%, 97.322083%, 46.435547%)" offset="0.0976562"/><stop stop-opacity="1" stop-color="rgb(86.820984%, 97.23053%, 45.347595%)" offset="0.101562"/><stop stop-opacity="1" stop-color="rgb(86.524963%, 97.137451%, 44.258118%)" offset="0.105469"/><stop stop-opacity="1" stop-color="rgb(86.230469%, 97.045898%, 43.170166%)" offset="0.109375"/><stop stop-opacity="1" stop-color="rgb(85.935974%, 96.95282%, 42.080688%)" offset="0.113281"/><stop stop-opacity="1" stop-color="rgb(85.641479%, 96.861267%, 40.992737%)" offset="0.117188"/><stop stop-opacity="1" stop-color="rgb(85.345459%, 96.768188%, 39.903259%)" offset="0.121094"/><stop stop-opacity="1" stop-color="rgb(85.050964%, 96.676636%, 38.815308%)" offset="0.125"/><stop stop-opacity="1" stop-color="rgb(84.754944%, 96.583557%, 37.72583%)" offset="0.128906"/><stop stop-opacity="1" stop-color="rgb(84.460449%, 96.492004%, 36.637878%)" offset="0.132812"/><stop stop-opacity="1" stop-color="rgb(84.165955%, 96.398926%, 35.548401%)" offset="0.136719"/><stop stop-opacity="1" stop-color="rgb(83.87146%, 96.307373%, 34.460449%)" offset="0.140625"/><stop stop-opacity="1" stop-color="rgb(83.575439%, 96.21582%, 33.370972%)" offset="0.144531"/><stop stop-opacity="1" stop-color="rgb(83.280945%, 96.124268%, 32.28302%)" offset="0.148438"/><stop stop-opacity="1" stop-color="rgb(83.377075%, 96.122742%, 32.751465%)" offset="0.152344"/><stop stop-opacity="1" stop-color="rgb(83.474731%, 96.122742%, 33.221436%)" offset="0.15625"/><stop stop-opacity="1" stop-color="rgb(83.694458%, 96.151733%, 34.184265%)" offset="0.160156"/><stop stop-opacity="1" stop-color="rgb(83.914185%, 96.180725%, 35.147095%)" offset="0.164062"/><stop stop-opacity="1" stop-color="rgb(84.133911%, 96.209717%, 36.109924%)" offset="0.167969"/><stop stop-opacity="1" stop-color="rgb(84.355164%, 96.238708%, 37.072754%)" offset="0.171875"/><stop stop-opacity="1" stop-color="rgb(84.57489%, 96.2677%, 38.035583%)" offset="0.175781"/><stop stop-opacity="1" stop-color="rgb(84.796143%, 96.296692%, 38.998413%)" offset="0.179688"/><stop stop-opacity="1" stop-color="rgb(85.015869%, 96.325684%, 39.959717%)" offset="0.183594"/><stop stop-opacity="1" stop-color="rgb(85.237122%, 96.354675%, 40.922546%)" offset="0.1875"/><stop stop-opacity="1" stop-color="rgb(85.456848%, 96.383667%, 41.885376%)" offset="0.191406"/><stop stop-opacity="1" stop-color="rgb(85.676575%, 96.412659%, 42.848206%)" offset="0.195312"/><stop stop-opacity="1" stop-color="rgb(85.896301%, 96.44165%, 43.811035%)" offset="0.199219"/><stop stop-opacity="1" stop-color="rgb(86.117554%, 96.470642%, 44.773865%)" offset="0.203125"/><stop stop-opacity="1" stop-color="rgb(86.33728%, 96.499634%, 45.735168%)" offset="0.207031"/><stop stop-opacity="1" stop-color="rgb(86.558533%, 96.528625%, 46.697998%)" offset="0.210938"/><stop stop-opacity="1" stop-color="rgb(86.778259%, 96.557617%, 47.660828%)" offset="0.214844"/><stop stop-opacity="1" stop-color="rgb(86.999512%, 96.586609%, 48.623657%)" offset="0.21875"/><stop stop-opacity="1" stop-color="rgb(87.219238%, 96.615601%, 49.586487%)" offset="0.222656"/><stop stop-opacity="1" stop-color="rgb(87.440491%, 96.644592%, 50.549316%)" offset="0.226562"/><stop stop-opacity="1" stop-color="rgb(87.660217%, 96.673584%, 51.512146%)" offset="0.230469"/><stop stop-opacity="1" stop-color="rgb(87.879944%, 96.702576%, 52.474976%)" offset="0.234375"/><stop stop-opacity="1" stop-color="rgb(88.09967%, 96.731567%, 53.436279%)" offset="0.238281"/><stop stop-opacity="1" stop-color="rgb(88.320923%, 96.760559%, 54.399109%)" offset="0.242188"/><stop stop-opacity="1" stop-color="rgb(88.540649%, 96.789551%, 55.361938%)" offset="0.246094"/><stop stop-opacity="1" stop-color="rgb(88.761902%, 96.818542%, 56.324768%)" offset="0.25"/><stop stop-opacity="1" stop-color="rgb(88.981628%, 96.847534%, 57.287598%)" offset="0.253906"/><stop stop-opacity="1" stop-color="rgb(89.202881%, 96.876526%, 58.250427%)" offset="0.257812"/><stop stop-opacity="1" stop-color="rgb(89.422607%, 96.905518%, 59.213257%)" offset="0.261719"/><stop stop-opacity="1" stop-color="rgb(89.64386%, 96.934509%, 60.176086%)" offset="0.265625"/><stop stop-opacity="1" stop-color="rgb(89.863586%, 96.963501%, 61.13739%)" offset="0.269531"/><stop stop-opacity="1" stop-color="rgb(90.083313%, 96.992493%, 62.10022%)" offset="0.273437"/><stop stop-opacity="1" stop-color="rgb(90.30304%, 97.021484%, 63.063049%)" offset="0.277344"/><stop stop-opacity="1" stop-color="rgb(90.524292%, 97.050476%, 64.025879%)" offset="0.28125"/><stop stop-opacity="1" stop-color="rgb(90.744019%, 97.079468%, 64.988708%)" offset="0.285156"/><stop stop-opacity="1" stop-color="rgb(90.965271%, 97.108459%, 65.951538%)" offset="0.289062"/><stop stop-opacity="1" stop-color="rgb(91.184998%, 97.137451%, 66.912842%)" offset="0.292969"/><stop stop-opacity="1" stop-color="rgb(91.40625%, 97.166443%, 67.875671%)" offset="0.296875"/><stop stop-opacity="1" stop-color="rgb(91.625977%, 97.195435%, 68.838501%)" offset="0.300781"/><stop stop-opacity="1" stop-color="rgb(91.845703%, 97.224426%, 69.801331%)" offset="0.304687"/><stop stop-opacity="1" stop-color="rgb(92.06543%, 97.253418%, 70.76416%)" offset="0.308594"/><stop stop-opacity="1" stop-color="rgb(92.286682%, 97.28241%, 71.72699%)" offset="0.3125"/><stop stop-opacity="1" stop-color="rgb(92.506409%, 97.311401%, 72.689819%)" offset="0.316406"/><stop stop-opacity="1" stop-color="rgb(92.727661%, 97.340393%, 73.652649%)" offset="0.320312"/><stop stop-opacity="1" stop-color="rgb(92.947388%, 97.369385%, 74.613953%)" offset="0.324219"/><stop stop-opacity="1" stop-color="rgb(93.16864%, 97.398376%, 75.576782%)" offset="0.328125"/><stop stop-opacity="1" stop-color="rgb(93.388367%, 97.427368%, 76.539612%)" offset="0.332031"/><stop stop-opacity="1" stop-color="rgb(93.609619%, 97.45636%, 77.502441%)" offset="0.335938"/><stop stop-opacity="1" stop-color="rgb(93.829346%, 97.485352%, 78.465271%)" offset="0.339844"/><stop stop-opacity="1" stop-color="rgb(94.049072%, 97.514343%, 79.428101%)" offset="0.34375"/><stop stop-opacity="1" stop-color="rgb(94.268799%, 97.543335%, 80.39093%)" offset="0.347656"/><stop stop-opacity="1" stop-color="rgb(94.490051%, 97.572327%, 81.35376%)" offset="0.351562"/><stop stop-opacity="1" stop-color="rgb(94.709778%, 97.601318%, 82.315063%)" offset="0.355469"/><stop stop-opacity="1" stop-color="rgb(94.93103%, 97.63031%, 83.277893%)" offset="0.359375"/><stop stop-opacity="1" stop-color="rgb(95.150757%, 97.659302%, 84.240723%)" offset="0.363281"/><stop stop-opacity="1" stop-color="rgb(95.372009%, 97.688293%, 85.203552%)" offset="0.367188"/><stop stop-opacity="1" stop-color="rgb(95.591736%, 97.717285%, 86.166382%)" offset="0.371094"/><stop stop-opacity="1" stop-color="rgb(95.811462%, 97.746277%, 87.129211%)" offset="0.375"/><stop stop-opacity="1" stop-color="rgb(96.031189%, 97.775269%, 88.092041%)" offset="0.378906"/><stop stop-opacity="1" stop-color="rgb(96.252441%, 97.80426%, 89.054871%)" offset="0.382812"/><stop stop-opacity="1" stop-color="rgb(96.472168%, 97.833252%, 90.016174%)" offset="0.386719"/><stop stop-opacity="1" stop-color="rgb(96.69342%, 97.862244%, 90.979004%)" offset="0.390625"/><stop stop-opacity="1" stop-color="rgb(96.913147%, 97.891235%, 91.941833%)" offset="0.394531"/><stop stop-opacity="1" stop-color="rgb(97.134399%, 97.920227%, 92.904663%)" offset="0.398438"/><stop stop-opacity="1" stop-color="rgb(97.354126%, 97.949219%, 93.867493%)" offset="0.402344"/><stop stop-opacity="1" stop-color="rgb(97.575378%, 97.97821%, 94.830322%)" offset="0.40625"/><stop stop-opacity="1" stop-color="rgb(97.795105%, 98.007202%, 95.791626%)" offset="0.410156"/><stop stop-opacity="1" stop-color="rgb(98.014832%, 98.036194%, 96.754456%)" offset="0.414062"/><stop stop-opacity="1" stop-color="rgb(97.868347%, 98.016357%, 96.113586%)" offset="0.417969"/><stop stop-opacity="1" stop-color="rgb(97.721863%, 97.998047%, 95.474243%)" offset="0.421875"/><stop stop-opacity="1" stop-color="rgb(97.554016%, 97.975159%, 94.741821%)" offset="0.425781"/><stop stop-opacity="1" stop-color="rgb(97.386169%, 97.953796%, 94.009399%)" offset="0.429688"/><stop stop-opacity="1" stop-color="rgb(97.218323%, 97.930908%, 93.276978%)" offset="0.433594"/><stop stop-opacity="1" stop-color="rgb(97.052002%, 97.909546%, 92.544556%)" offset="0.4375"/><stop stop-opacity="1" stop-color="rgb(96.884155%, 97.886658%, 91.812134%)" offset="0.441406"/><stop stop-opacity="1" stop-color="rgb(96.716309%, 97.865295%, 91.079712%)" offset="0.445312"/><stop stop-opacity="1" stop-color="rgb(96.548462%, 97.842407%, 90.34729%)" offset="0.449219"/><stop stop-opacity="1" stop-color="rgb(96.380615%, 97.821045%, 89.614868%)" offset="0.453125"/><stop stop-opacity="1" stop-color="rgb(96.212769%, 97.798157%, 88.882446%)" offset="0.457031"/><stop stop-opacity="1" stop-color="rgb(96.046448%, 97.776794%, 88.150024%)" offset="0.460938"/><stop stop-opacity="1" stop-color="rgb(95.878601%, 97.753906%, 87.417603%)" offset="0.464844"/><stop stop-opacity="1" stop-color="rgb(95.710754%, 97.732544%, 86.685181%)" offset="0.46875"/><stop stop-opacity="1" stop-color="rgb(95.542908%, 97.709656%, 85.952759%)" offset="0.472656"/><stop stop-opacity="1" stop-color="rgb(95.375061%, 97.688293%, 85.220337%)" offset="0.476562"/><stop stop-opacity="1" stop-color="rgb(95.207214%, 97.665405%, 84.486389%)" offset="0.480469"/><stop stop-opacity="1" stop-color="rgb(95.039368%, 97.644043%, 83.753967%)" offset="0.484375"/><stop stop-opacity="1" stop-color="rgb(94.871521%, 97.622681%, 83.021545%)" offset="0.488281"/><stop stop-opacity="1" stop-color="rgb(94.7052%, 97.601318%, 82.289124%)" offset="0.492188"/><stop stop-opacity="1" stop-color="rgb(94.537354%, 97.57843%, 81.556702%)" offset="0.496094"/><stop stop-opacity="1" stop-color="rgb(94.369507%, 97.557068%, 80.82428%)" offset="0.5"/><stop stop-opacity="1" stop-color="rgb(94.20166%, 97.53418%, 80.091858%)" offset="0.503906"/><stop stop-opacity="1" stop-color="rgb(94.033813%, 97.512817%, 79.359436%)" offset="0.507812"/><stop stop-opacity="1" stop-color="rgb(93.865967%, 97.489929%, 78.627014%)" offset="0.511719"/><stop stop-opacity="1" stop-color="rgb(93.69812%, 97.468567%, 77.894592%)" offset="0.515625"/><stop stop-opacity="1" stop-color="rgb(93.530273%, 97.445679%, 77.16217%)" offset="0.519531"/><stop stop-opacity="1" stop-color="rgb(93.363953%, 97.424316%, 76.429749%)" offset="0.523438"/><stop stop-opacity="1" stop-color="rgb(93.196106%, 97.401428%, 75.697327%)" offset="0.527344"/><stop stop-opacity="1" stop-color="rgb(93.028259%, 97.380066%, 74.964905%)" offset="0.53125"/><stop stop-opacity="1" stop-color="rgb(92.860413%, 97.357178%, 74.232483%)" offset="0.535156"/><stop stop-opacity="1" stop-color="rgb(92.692566%, 97.335815%, 73.500061%)" offset="0.539062"/><stop stop-opacity="1" stop-color="rgb(92.524719%, 97.312927%, 72.767639%)" offset="0.542969"/><stop stop-opacity="1" stop-color="rgb(92.358398%, 97.291565%, 72.035217%)" offset="0.546875"/><stop stop-opacity="1" stop-color="rgb(92.190552%, 97.268677%, 71.302795%)" offset="0.550781"/><stop stop-opacity="1" stop-color="rgb(92.022705%, 97.247314%, 70.570374%)" offset="0.554687"/><stop stop-opacity="1" stop-color="rgb(91.854858%, 97.224426%, 69.837952%)" offset="0.558594"/><stop stop-opacity="1" stop-color="rgb(91.687012%, 97.203064%, 69.10553%)" offset="0.5625"/><stop stop-opacity="1" stop-color="rgb(91.519165%, 97.180176%, 68.373108%)" offset="0.566406"/><stop stop-opacity="1" stop-color="rgb(91.351318%, 97.158813%, 67.640686%)" offset="0.570312"/><stop stop-opacity="1" stop-color="rgb(91.183472%, 97.137451%, 66.908264%)" offset="0.574219"/><stop stop-opacity="1" stop-color="rgb(91.017151%, 97.116089%, 66.175842%)" offset="0.578125"/><stop stop-opacity="1" stop-color="rgb(90.849304%, 97.093201%, 65.44342%)" offset="0.582031"/><stop stop-opacity="1" stop-color="rgb(90.681458%, 97.071838%, 64.710999%)" offset="0.585937"/><stop stop-opacity="1" stop-color="rgb(90.513611%, 97.04895%, 63.978577%)" offset="0.589844"/><stop stop-opacity="1" stop-color="rgb(90.345764%, 97.027588%, 63.246155%)" offset="0.59375"/><stop stop-opacity="1" stop-color="rgb(90.177917%, 97.0047%, 62.513733%)" offset="0.597656"/><stop stop-opacity="1" stop-color="rgb(90.010071%, 96.983337%, 61.781311%)" offset="0.601562"/><stop stop-opacity="1" stop-color="rgb(89.842224%, 96.960449%, 61.048889%)" offset="0.605469"/><stop stop-opacity="1" stop-color="rgb(89.675903%, 96.939087%, 60.316467%)" offset="0.609375"/><stop stop-opacity="1" stop-color="rgb(89.508057%, 96.916199%, 59.584045%)" offset="0.613281"/><stop stop-opacity="1" stop-color="rgb(89.34021%, 96.894836%, 58.851624%)" offset="0.617187"/><stop stop-opacity="1" stop-color="rgb(89.172363%, 96.871948%, 58.119202%)" offset="0.621094"/><stop stop-opacity="1" stop-color="rgb(89.004517%, 96.850586%, 57.38678%)" offset="0.625"/><stop stop-opacity="1" stop-color="rgb(88.83667%, 96.827698%, 56.654358%)" offset="0.628906"/><stop stop-opacity="1" stop-color="rgb(88.670349%, 96.806335%, 55.921936%)" offset="0.632812"/><stop stop-opacity="1" stop-color="rgb(88.502502%, 96.783447%, 55.189514%)" offset="0.636719"/><stop stop-opacity="1" stop-color="rgb(88.334656%, 96.762085%, 54.457092%)" offset="0.640625"/><stop stop-opacity="1" stop-color="rgb(88.166809%, 96.739197%, 53.72467%)" offset="0.644531"/><stop stop-opacity="1" stop-color="rgb(87.998962%, 96.717834%, 52.992249%)" offset="0.648437"/><stop stop-opacity="1" stop-color="rgb(87.831116%, 96.696472%, 52.259827%)" offset="0.652344"/><stop stop-opacity="1" stop-color="rgb(87.663269%, 96.67511%, 51.527405%)" offset="0.65625"/><stop stop-opacity="1" stop-color="rgb(87.495422%, 96.652222%, 50.794983%)" offset="0.660156"/><stop stop-opacity="1" stop-color="rgb(87.329102%, 96.630859%, 50.062561%)" offset="0.664062"/><stop stop-opacity="1" stop-color="rgb(87.161255%, 96.607971%, 49.330139%)" offset="0.667969"/><stop stop-opacity="1" stop-color="rgb(86.993408%, 96.586609%, 48.597717%)" offset="0.671875"/><stop stop-opacity="1" stop-color="rgb(86.825562%, 96.563721%, 47.865295%)" offset="0.675781"/><stop stop-opacity="1" stop-color="rgb(86.657715%, 96.542358%, 47.132874%)" offset="0.679687"/><stop stop-opacity="1" stop-color="rgb(86.489868%, 96.51947%, 46.400452%)" offset="0.683594"/><stop stop-opacity="1" stop-color="rgb(86.322021%, 96.498108%, 45.66803%)" offset="0.6875"/><stop stop-opacity="1" stop-color="rgb(86.154175%, 96.47522%, 44.935608%)" offset="0.691406"/><stop stop-opacity="1" stop-color="rgb(85.987854%, 96.453857%, 44.203186%)" offset="0.695312"/><stop stop-opacity="1" stop-color="rgb(85.820007%, 96.430969%, 43.470764%)" offset="0.699219"/><stop stop-opacity="1" stop-color="rgb(85.652161%, 96.409607%, 42.738342%)" offset="0.703125"/><stop stop-opacity="1" stop-color="rgb(85.484314%, 96.386719%, 42.00592%)" offset="0.707031"/><stop stop-opacity="1" stop-color="rgb(85.316467%, 96.365356%, 41.273499%)" offset="0.710937"/><stop stop-opacity="1" stop-color="rgb(85.148621%, 96.342468%, 40.541077%)" offset="0.714844"/><stop stop-opacity="1" stop-color="rgb(84.9823%, 96.321106%, 39.808655%)" offset="0.71875"/><stop stop-opacity="1" stop-color="rgb(84.814453%, 96.298218%, 39.076233%)" offset="0.722656"/><stop stop-opacity="1" stop-color="rgb(84.646606%, 96.276855%, 38.343811%)" offset="0.726562"/><stop stop-opacity="1" stop-color="rgb(84.47876%, 96.255493%, 37.611389%)" offset="0.730469"/><stop stop-opacity="1" stop-color="rgb(84.310913%, 96.234131%, 36.878967%)" offset="0.734375"/><stop stop-opacity="1" stop-color="rgb(84.143066%, 96.211243%, 36.146545%)" offset="0.738281"/><stop stop-opacity="1" stop-color="rgb(83.97522%, 96.18988%, 35.414124%)" offset="0.742187"/><stop stop-opacity="1" stop-color="rgb(83.807373%, 96.166992%, 34.681702%)" offset="0.746094"/><stop stop-opacity="1" stop-color="rgb(83.641052%, 96.14563%, 33.94928%)" offset="0.75"/><stop stop-opacity="1" stop-color="rgb(83.473206%, 96.122742%, 33.216858%)" offset="0.753906"/><stop stop-opacity="1" stop-color="rgb(83.305359%, 96.101379%, 32.484436%)" offset="0.757812"/><stop stop-opacity="1" stop-color="rgb(83.427429%, 96.153259%, 32.876587%)" offset="0.761719"/><stop stop-opacity="1" stop-color="rgb(83.5495%, 96.206665%, 33.270264%)" offset="0.765625"/><stop stop-opacity="1" stop-color="rgb(83.953857%, 96.333313%, 34.767151%)" offset="0.769531"/><stop stop-opacity="1" stop-color="rgb(84.359741%, 96.461487%, 36.264038%)" offset="0.773437"/><stop stop-opacity="1" stop-color="rgb(84.765625%, 96.588135%, 37.760925%)" offset="0.777344"/><stop stop-opacity="1" stop-color="rgb(85.171509%, 96.714783%, 39.257812%)" offset="0.78125"/><stop stop-opacity="1" stop-color="rgb(85.575867%, 96.841431%, 40.7547%)" offset="0.785156"/><stop stop-opacity="1" stop-color="rgb(85.98175%, 96.968079%, 42.253113%)" offset="0.789062"/><stop stop-opacity="1" stop-color="rgb(86.387634%, 97.094727%, 43.75%)" offset="0.792969"/><stop stop-opacity="1" stop-color="rgb(86.793518%, 97.221375%, 45.246887%)" offset="0.796875"/><stop stop-opacity="1" stop-color="rgb(87.199402%, 97.348022%, 46.743774%)" offset="0.800781"/><stop stop-opacity="1" stop-color="rgb(87.605286%, 97.47467%, 48.240662%)" offset="0.804687"/><stop stop-opacity="1" stop-color="rgb(88.009644%, 97.601318%, 49.737549%)" offset="0.808594"/><stop stop-opacity="1" stop-color="rgb(88.415527%, 97.729492%, 51.234436%)" offset="0.8125"/><stop stop-opacity="1" stop-color="rgb(88.821411%, 97.85614%, 52.731323%)" offset="0.816406"/><stop stop-opacity="1" stop-color="rgb(89.227295%, 97.982788%, 54.22821%)" offset="0.820312"/><stop stop-opacity="1" stop-color="rgb(89.317322%, 98.010254%, 54.563904%)" offset="0.824219"/><stop stop-opacity="1" stop-color="rgb(89.408875%, 98.039246%, 54.899597%)" offset="0.828125"/><stop stop-opacity="1" stop-color="rgb(89.408875%, 98.039246%, 54.899597%)" offset="0.84375"/><stop stop-opacity="1" stop-color="rgb(89.408875%, 98.039246%, 54.899597%)" offset="0.875"/><stop stop-opacity="1" stop-color="rgb(89.408875%, 98.039246%, 54.899597%)" offset="1"/></linearGradient><clipPath id="b6c625523c"><path d="M 123.410156 82.570312 L 256.738281 82.570312 L 256.738281 183 L 123.410156 183 Z M 123.410156 82.570312 " clip-rule="nonzero"/></clipPath><clipPath id="a53735e465"><path d="M 186.117188 84.414062 L 125.199219 146.195312 C 124.164062 147.242188 123.582031 148.65625 123.582031 150.128906 L 123.582031 179.359375 C 123.582031 181.8125 126.035156 183.507812 128.328125 182.640625 L 169.703125 167.015625 C 171.191406 166.453125 172.371094 165.285156 172.945312 163.800781 L 187.714844 125.808594 C 188.5625 123.625 191.652344 123.625 192.5 125.808594 L 207.265625 163.800781 C 207.84375 165.285156 209.023438 166.453125 210.511719 167.015625 L 251.886719 182.640625 C 254.179688 183.507812 256.628906 181.8125 256.628906 179.359375 L 256.628906 150.128906 C 256.628906 148.65625 256.050781 147.242188 255.015625 146.195312 L 194.097656 84.414062 C 191.902344 82.1875 188.3125 82.1875 186.117188 84.414062 Z M 186.117188 84.414062 " clip-rule="nonzero"/></clipPath><clipPath id="d0c8feb61d"><path d="M 0.582031 0.742188 L 133.566406 0.742188 L 133.566406 100.871094 L 0.582031 100.871094 Z M 0.582031 0.742188 " clip-rule="nonzero"/></clipPath><clipPath id="13d5576c87"><path d="M 63.117188 2.414062 L 2.199219 64.195312 C 1.164062 65.242188 0.582031 66.65625 0.582031 68.128906 L 0.582031 97.359375 C 0.582031 99.8125 3.035156 101.507812 5.328125 100.640625 L 46.703125 85.015625 C 48.191406 84.453125 49.371094 83.285156 49.945312 81.800781 L 64.714844 43.808594 C 65.5625 41.625 68.652344 41.625 69.5 43.808594 L 84.265625 81.800781 C 84.84375 83.285156 86.023438 84.453125 87.511719 85.015625 L 128.886719 100.640625 C 131.179688 101.507812 133.628906 99.8125 133.628906 97.359375 L 133.628906 68.128906 C 133.628906 66.65625 133.050781 65.242188 132.015625 64.195312 L 71.097656 2.414062 C 68.902344 0.1875 65.3125 0.1875 63.117188 2.414062 Z M 63.117188 2.414062 " clip-rule="nonzero"/></clipPath><linearGradient x1="0.00680193" gradientTransform="matrix(0.172929, 0, 0, 0.172929, 0.582107, 0.74364)" y1="289.5" x2="769.00683" gradientUnits="userSpaceOnUse" y2="289.5" id="14c2b217bd"><stop stop-opacity="1" stop-color="rgb(89.408875%, 98.039246%, 54.899597%)" offset="0"/><stop stop-opacity="1" stop-color="rgb(89.360046%, 98.023987%, 54.718018%)" offset="0.015625"/><stop stop-opacity="1" stop-color="rgb(89.26239%, 97.993469%, 54.356384%)" offset="0.03125"/><stop stop-opacity="1" stop-color="rgb(89.164734%, 97.962952%, 53.994751%)" offset="0.046875"/><stop stop-opacity="1" stop-color="rgb(89.067078%, 97.932434%, 53.633118%)" offset="0.0625"/><stop stop-opacity="1" stop-color="rgb(88.967896%, 97.901917%, 53.271484%)" offset="0.078125"/><stop stop-opacity="1" stop-color="rgb(88.870239%, 97.871399%, 52.911377%)" offset="0.09375"/><stop stop-opacity="1" stop-color="rgb(88.772583%, 97.840881%, 52.549744%)" offset="0.109375"/><stop stop-opacity="1" stop-color="rgb(88.674927%, 97.808838%, 52.18811%)" offset="0.125"/><stop stop-opacity="1" stop-color="rgb(88.577271%, 97.77832%, 51.826477%)" offset="0.140625"/><stop stop-opacity="1" stop-color="rgb(88.478088%, 97.747803%, 51.464844%)" offset="0.15625"/><stop stop-opacity="1" stop-color="rgb(88.380432%, 97.717285%, 51.10321%)" offset="0.171875"/><stop stop-opacity="1" stop-color="rgb(88.282776%, 97.686768%, 50.743103%)" offset="0.1875"/><stop stop-opacity="1" stop-color="rgb(88.18512%, 97.65625%, 50.38147%)" offset="0.203125"/><stop stop-opacity="1" stop-color="rgb(88.087463%, 97.625732%, 50.019836%)" offset="0.21875"/><stop stop-opacity="1" stop-color="rgb(87.989807%, 97.595215%, 49.658203%)" offset="0.234375"/><stop stop-opacity="1" stop-color="rgb(87.890625%, 97.564697%, 49.29657%)" offset="0.25"/><stop stop-opacity="1" stop-color="rgb(87.792969%, 97.53418%, 48.934937%)" offset="0.265625"/><stop stop-opacity="1" stop-color="rgb(87.695312%, 97.503662%, 48.574829%)" offset="0.28125"/><stop stop-opacity="1" stop-color="rgb(87.597656%, 97.473145%, 48.213196%)" offset="0.296875"/><stop stop-opacity="1" stop-color="rgb(87.5%, 97.442627%, 47.851562%)" offset="0.3125"/><stop stop-opacity="1" stop-color="rgb(87.402344%, 97.412109%, 47.489929%)" offset="0.328125"/><stop stop-opacity="1" stop-color="rgb(87.303162%, 97.381592%, 47.128296%)" offset="0.34375"/><stop stop-opacity="1" stop-color="rgb(87.205505%, 97.351074%, 46.766663%)" offset="0.359375"/><stop stop-opacity="1" stop-color="rgb(87.107849%, 97.320557%, 46.406555%)" offset="0.375"/><stop stop-opacity="1" stop-color="rgb(87.010193%, 97.288513%, 46.044922%)" offset="0.390625"/><stop stop-opacity="1" stop-color="rgb(86.912537%, 97.257996%, 45.683289%)" offset="0.40625"/><stop stop-opacity="1" stop-color="rgb(86.81488%, 97.227478%, 45.321655%)" offset="0.421875"/><stop stop-opacity="1" stop-color="rgb(86.715698%, 97.19696%, 44.960022%)" offset="0.4375"/><stop stop-opacity="1" stop-color="rgb(86.618042%, 97.166443%, 44.598389%)" offset="0.453125"/><stop stop-opacity="1" stop-color="rgb(86.520386%, 97.135925%, 44.236755%)" offset="0.46875"/><stop stop-opacity="1" stop-color="rgb(86.422729%, 97.105408%, 43.876648%)" offset="0.484375"/><stop stop-opacity="1" stop-color="rgb(86.325073%, 97.07489%, 43.515015%)" offset="0.5"/><stop stop-opacity="1" stop-color="rgb(86.225891%, 97.044373%, 43.153381%)" offset="0.515625"/><stop stop-opacity="1" stop-color="rgb(86.128235%, 97.013855%, 42.791748%)" offset="0.53125"/><stop stop-opacity="1" stop-color="rgb(86.030579%, 96.983337%, 42.430115%)" offset="0.546875"/><stop stop-opacity="1" stop-color="rgb(85.932922%, 96.95282%, 42.068481%)" offset="0.5625"/><stop stop-opacity="1" stop-color="rgb(85.835266%, 96.922302%, 41.708374%)" offset="0.578125"/><stop stop-opacity="1" stop-color="rgb(85.73761%, 96.891785%, 41.346741%)" offset="0.59375"/><stop stop-opacity="1" stop-color="rgb(85.638428%, 96.861267%, 40.985107%)" offset="0.609375"/><stop stop-opacity="1" stop-color="rgb(85.540771%, 96.83075%, 40.623474%)" offset="0.625"/><stop stop-opacity="1" stop-color="rgb(85.443115%, 96.798706%, 40.261841%)" offset="0.640625"/><stop stop-opacity="1" stop-color="rgb(85.345459%, 96.768188%, 39.900208%)" offset="0.65625"/><stop stop-opacity="1" stop-color="rgb(85.247803%, 96.737671%, 39.5401%)" offset="0.671875"/><stop stop-opacity="1" stop-color="rgb(85.150146%, 96.707153%, 39.178467%)" offset="0.6875"/><stop stop-opacity="1" stop-color="rgb(85.050964%, 96.676636%, 38.816833%)" offset="0.703125"/><stop stop-opacity="1" stop-color="rgb(84.953308%, 96.646118%, 38.4552%)" offset="0.71875"/><stop stop-opacity="1" stop-color="rgb(84.855652%, 96.615601%, 38.093567%)" offset="0.734375"/><stop stop-opacity="1" stop-color="rgb(84.757996%, 96.585083%, 37.731934%)" offset="0.75"/><stop stop-opacity="1" stop-color="rgb(84.660339%, 96.554565%, 37.371826%)" offset="0.765625"/><stop stop-opacity="1" stop-color="rgb(84.562683%, 96.524048%, 37.010193%)" offset="0.78125"/><stop stop-opacity="1" stop-color="rgb(84.463501%, 96.49353%, 36.64856%)" offset="0.796875"/><stop stop-opacity="1" stop-color="rgb(84.365845%, 96.463013%, 36.286926%)" offset="0.8125"/><stop stop-opacity="1" stop-color="rgb(84.268188%, 96.432495%, 35.925293%)" offset="0.828125"/><stop stop-opacity="1" stop-color="rgb(84.170532%, 96.401978%, 35.56366%)" offset="0.84375"/><stop stop-opacity="1" stop-color="rgb(84.072876%, 96.37146%, 35.202026%)" offset="0.859375"/><stop stop-opacity="1" stop-color="rgb(83.973694%, 96.340942%, 34.841919%)" offset="0.875"/><stop stop-opacity="1" stop-color="rgb(83.876038%, 96.310425%, 34.480286%)" offset="0.890625"/><stop stop-opacity="1" stop-color="rgb(83.778381%, 96.278381%, 34.118652%)" offset="0.90625"/><stop stop-opacity="1" stop-color="rgb(83.680725%, 96.247864%, 33.757019%)" offset="0.921875"/><stop stop-opacity="1" stop-color="rgb(83.583069%, 96.217346%, 33.395386%)" offset="0.9375"/><stop stop-opacity="1" stop-color="rgb(83.485413%, 96.186829%, 33.033752%)" offset="0.953125"/><stop stop-opacity="1" stop-color="rgb(83.38623%, 96.156311%, 32.673645%)" offset="0.96875"/><stop stop-opacity="1" stop-color="rgb(83.288574%, 96.125793%, 32.312012%)" offset="0.984375"/><stop stop-opacity="1" stop-color="rgb(83.190918%, 96.095276%, 31.950378%)" offset="1"/></linearGradient><clipPath id="5250afac09"><rect x="0" width="134" y="0" height="101"/></clipPath><clipPath id="4a5e7d09c9"><path d="M 86.753906 185.886719 L 294.1875 185.886719 L 294.1875 292.632812 L 86.753906 292.632812 Z M 86.753906 185.886719 " clip-rule="nonzero"/></clipPath><clipPath id="a4c7605ad9"><path d="M 253.976562 186.269531 L 211.183594 202.933594 C 209.75 203.492188 208.609375 204.613281 208.03125 206.035156 L 192.761719 243.390625 C 191.890625 245.523438 188.878906 245.523438 188.007812 243.390625 L 172.742188 206.035156 C 172.160156 204.613281 171.019531 203.492188 169.589844 202.933594 L 126.792969 186.269531 C 124.648438 185.433594 122.214844 185.996094 120.652344 187.683594 L 88.246094 222.675781 C 87.285156 223.714844 86.753906 225.070312 86.753906 226.480469 L 86.753906 288.96875 C 86.753906 292.085938 90.527344 293.636719 92.71875 291.421875 L 134.808594 248.875 C 136.914062 246.746094 140.320312 246.648438 142.542969 248.652344 L 186.632812 288.421875 C 188.765625 290.347656 192.003906 290.347656 194.136719 288.421875 L 238.226562 248.652344 C 240.453125 246.648438 243.859375 246.746094 245.964844 248.875 L 288.050781 291.421875 C 290.242188 293.636719 294.015625 292.085938 294.015625 288.96875 L 294.015625 226.480469 C 294.015625 225.070312 293.484375 223.714844 292.523438 222.675781 L 260.121094 187.683594 C 258.558594 185.996094 256.121094 185.433594 253.976562 186.269531 Z M 253.976562 186.269531 " clip-rule="nonzero"/></clipPath><clipPath id="7280ea8481"><path d="M 0.753906 0.886719 L 208.015625 0.886719 L 208.015625 107.460938 L 0.753906 107.460938 Z M 0.753906 0.886719 " clip-rule="nonzero"/></clipPath><clipPath id="49577c9e4a"><path d="M 167.976562 1.269531 L 125.183594 17.933594 C 123.75 18.492188 122.609375 19.613281 122.03125 21.035156 L 106.761719 58.390625 C 105.890625 60.523438 102.878906 60.523438 102.007812 58.390625 L 86.742188 21.035156 C 86.160156 19.613281 85.019531 18.492188 83.589844 17.933594 L 40.792969 1.269531 C 38.648438 0.433594 36.214844 0.996094 34.652344 2.683594 L 2.246094 37.675781 C 1.285156 38.714844 0.753906 40.070312 0.753906 41.480469 L 0.753906 103.96875 C 0.753906 107.085938 4.527344 108.636719 6.71875 106.421875 L 48.808594 63.875 C 50.914062 61.746094 54.320312 61.648438 56.542969 63.652344 L 100.632812 103.421875 C 102.765625 105.347656 106.003906 105.347656 108.136719 103.421875 L 152.226562 63.652344 C 154.453125 61.648438 157.859375 61.746094 159.964844 63.875 L 202.050781 106.421875 C 204.242188 108.636719 208.015625 107.085938 208.015625 103.96875 L 208.015625 41.480469 C 208.015625 40.070312 207.484375 38.714844 206.523438 37.675781 L 174.121094 2.683594 C 172.558594 0.996094 170.121094 0.433594 167.976562 1.269531 Z M 167.976562 1.269531 " clip-rule="nonzero"/></clipPath><linearGradient x1="0.000416055" gradientTransform="matrix(0.173007, 0, 0, 0.173007, 0.753896, 0.886251)" y1="308.01001" x2="1198" gradientUnits="userSpaceOnUse" y2="308.01001" id="ffcd872269"><stop stop-opacity="1" stop-color="rgb(89.408875%, 98.039246%, 54.899597%)" offset="0"/><stop stop-opacity="1" stop-color="rgb(89.360046%, 98.023987%, 54.718018%)" offset="0.015625"/><stop stop-opacity="1" stop-color="rgb(89.26239%, 97.993469%, 54.356384%)" offset="0.03125"/><stop stop-opacity="1" stop-color="rgb(89.164734%, 97.962952%, 53.994751%)" offset="0.046875"/><stop stop-opacity="1" stop-color="rgb(89.065552%, 97.932434%, 53.633118%)" offset="0.0625"/><stop stop-opacity="1" stop-color="rgb(88.967896%, 97.901917%, 53.271484%)" offset="0.078125"/><stop stop-opacity="1" stop-color="rgb(88.870239%, 97.871399%, 52.909851%)" offset="0.09375"/><stop stop-opacity="1" stop-color="rgb(88.772583%, 97.840881%, 52.548218%)" offset="0.109375"/><stop stop-opacity="1" stop-color="rgb(88.674927%, 97.808838%, 52.186584%)" offset="0.125"/><stop stop-opacity="1" stop-color="rgb(88.575745%, 97.77832%, 51.824951%)" offset="0.140625"/><stop stop-opacity="1" stop-color="rgb(88.478088%, 97.747803%, 51.463318%)" offset="0.15625"/><stop stop-opacity="1" stop-color="rgb(88.380432%, 97.717285%, 51.101685%)" offset="0.171875"/><stop stop-opacity="1" stop-color="rgb(88.282776%, 97.686768%, 50.740051%)" offset="0.1875"/><stop stop-opacity="1" stop-color="rgb(88.18512%, 97.65625%, 50.378418%)" offset="0.203125"/><stop stop-opacity="1" stop-color="rgb(88.085938%, 97.625732%, 50.016785%)" offset="0.21875"/><stop stop-opacity="1" stop-color="rgb(87.988281%, 97.595215%, 49.655151%)" offset="0.234375"/><stop stop-opacity="1" stop-color="rgb(87.890625%, 97.564697%, 49.295044%)" offset="0.25"/><stop stop-opacity="1" stop-color="rgb(87.792969%, 97.53418%, 48.933411%)" offset="0.265625"/><stop stop-opacity="1" stop-color="rgb(87.695312%, 97.503662%, 48.571777%)" offset="0.28125"/><stop stop-opacity="1" stop-color="rgb(87.59613%, 97.473145%, 48.210144%)" offset="0.296875"/><stop stop-opacity="1" stop-color="rgb(87.498474%, 97.442627%, 47.848511%)" offset="0.3125"/><stop stop-opacity="1" stop-color="rgb(87.400818%, 97.412109%, 47.486877%)" offset="0.328125"/><stop stop-opacity="1" stop-color="rgb(87.303162%, 97.380066%, 47.125244%)" offset="0.34375"/><stop stop-opacity="1" stop-color="rgb(87.205505%, 97.349548%, 46.763611%)" offset="0.359375"/><stop stop-opacity="1" stop-color="rgb(87.106323%, 97.319031%, 46.401978%)" offset="0.375"/><stop stop-opacity="1" stop-color="rgb(87.008667%, 97.288513%, 46.040344%)" offset="0.390625"/><stop stop-opacity="1" stop-color="rgb(86.911011%, 97.257996%, 45.678711%)" offset="0.40625"/><stop stop-opacity="1" stop-color="rgb(86.813354%, 97.227478%, 45.317078%)" offset="0.421875"/><stop stop-opacity="1" stop-color="rgb(86.715698%, 97.19696%, 44.955444%)" offset="0.4375"/><stop stop-opacity="1" stop-color="rgb(86.616516%, 97.166443%, 44.593811%)" offset="0.453125"/><stop stop-opacity="1" stop-color="rgb(86.51886%, 97.135925%, 44.232178%)" offset="0.46875"/><stop stop-opacity="1" stop-color="rgb(86.421204%, 97.105408%, 43.870544%)" offset="0.484375"/><stop stop-opacity="1" stop-color="rgb(86.323547%, 97.07489%, 43.508911%)" offset="0.5"/><stop stop-opacity="1" stop-color="rgb(86.224365%, 97.044373%, 43.147278%)" offset="0.515625"/><stop stop-opacity="1" stop-color="rgb(86.126709%, 97.013855%, 42.785645%)" offset="0.53125"/><stop stop-opacity="1" stop-color="rgb(86.029053%, 96.983337%, 42.424011%)" offset="0.546875"/><stop stop-opacity="1" stop-color="rgb(85.931396%, 96.951294%, 42.062378%)" offset="0.5625"/><stop stop-opacity="1" stop-color="rgb(85.83374%, 96.920776%, 41.700745%)" offset="0.578125"/><stop stop-opacity="1" stop-color="rgb(85.734558%, 96.890259%, 41.340637%)" offset="0.59375"/><stop stop-opacity="1" stop-color="rgb(85.636902%, 96.859741%, 40.979004%)" offset="0.609375"/><stop stop-opacity="1" stop-color="rgb(85.539246%, 96.829224%, 40.617371%)" offset="0.625"/><stop stop-opacity="1" stop-color="rgb(85.441589%, 96.798706%, 40.255737%)" offset="0.640625"/><stop stop-opacity="1" stop-color="rgb(85.343933%, 96.768188%, 39.894104%)" offset="0.65625"/><stop stop-opacity="1" stop-color="rgb(85.244751%, 96.737671%, 39.532471%)" offset="0.671875"/><stop stop-opacity="1" stop-color="rgb(85.147095%, 96.707153%, 39.170837%)" offset="0.6875"/><stop stop-opacity="1" stop-color="rgb(85.049438%, 96.676636%, 38.809204%)" offset="0.703125"/><stop stop-opacity="1" stop-color="rgb(84.951782%, 96.646118%, 38.447571%)" offset="0.71875"/><stop stop-opacity="1" stop-color="rgb(84.854126%, 96.615601%, 38.085938%)" offset="0.734375"/><stop stop-opacity="1" stop-color="rgb(84.754944%, 96.585083%, 37.724304%)" offset="0.75"/><stop stop-opacity="1" stop-color="rgb(84.657288%, 96.554565%, 37.362671%)" offset="0.765625"/><stop stop-opacity="1" stop-color="rgb(84.559631%, 96.522522%, 37.001038%)" offset="0.78125"/><stop stop-opacity="1" stop-color="rgb(84.461975%, 96.492004%, 36.639404%)" offset="0.796875"/><stop stop-opacity="1" stop-color="rgb(84.364319%, 96.461487%, 36.277771%)" offset="0.8125"/><stop stop-opacity="1" stop-color="rgb(84.265137%, 96.430969%, 35.916138%)" offset="0.828125"/><stop stop-opacity="1" stop-color="rgb(84.16748%, 96.400452%, 35.554504%)" offset="0.84375"/><stop stop-opacity="1" stop-color="rgb(84.069824%, 96.369934%, 35.192871%)" offset="0.859375"/><stop stop-opacity="1" stop-color="rgb(83.972168%, 96.339417%, 34.831238%)" offset="0.875"/><stop stop-opacity="1" stop-color="rgb(83.874512%, 96.308899%, 34.469604%)" offset="0.890625"/><stop stop-opacity="1" stop-color="rgb(83.77533%, 96.278381%, 34.107971%)" offset="0.90625"/><stop stop-opacity="1" stop-color="rgb(83.677673%, 96.247864%, 33.747864%)" offset="0.921875"/><stop stop-opacity="1" stop-color="rgb(83.580017%, 96.217346%, 33.38623%)" offset="0.9375"/><stop stop-opacity="1" stop-color="rgb(83.482361%, 96.186829%, 33.024597%)" offset="0.953125"/><stop stop-opacity="1" stop-color="rgb(83.384705%, 96.156311%, 32.662964%)" offset="0.96875"/><stop stop-opacity="1" stop-color="rgb(83.285522%, 96.125793%, 32.301331%)" offset="0.984375"/><stop stop-opacity="1" stop-color="rgb(83.187866%, 96.09375%, 31.939697%)" offset="1"/></linearGradient><clipPath id="33f59b41ed"><rect x="0" width="209" y="0" height="108"/></clipPath></defs><g clip-path="url(#a7515a40c8)"><g transform="matrix(1, 0, 0, 1, 410, 0)"><g clip-path="url(#f61e8c4f43)"><g fill="#fafaf7" fill-opacity="1"><g transform="translate(0.0997066, 304.365417)"><g><path d="M 90.921875 22.90625 C 104.078125 22.90625 114.117188 20.320312 121.046875 15.15625 C 127.972656 9.988281 132.671875 3.351562 135.140625 -4.75 C 137.609375 -12.863281 138.84375 -21.03125 138.84375 -29.25 L 138.84375 -35.59375 C 134.375 -29.25 127.441406 -23.785156 118.046875 -19.203125 C 108.648438 -14.617188 97.140625 -12.328125 83.515625 -12.328125 C 66.835938 -12.328125 53.679688 -15.613281 44.046875 -22.1875 C 34.410156 -28.769531 27.65625 -37.816406 23.78125 -49.328125 C 19.90625 -60.847656 17.96875 -74.125 17.96875 -89.15625 L 17.96875 -181.484375 L 67.65625 -181.484375 L 67.65625 -87.390625 C 67.65625 -76.347656 69.945312 -67.710938 74.53125 -61.484375 C 79.113281 -55.265625 87.507812 -52.15625 99.71875 -52.15625 C 110.757812 -52.15625 119.097656 -54.796875 124.734375 -60.078125 C 130.378906 -65.367188 135.195312 -72.828125 139.1875 -82.453125 L 139.1875 -181.484375 L 188.171875 -181.484375 L 188.171875 -28.546875 C 188.171875 -9.753906 185.234375 5.75 179.359375 17.96875 C 173.492188 30.1875 165.921875 39.703125 156.640625 46.515625 C 147.359375 53.328125 137.429688 58.082031 126.859375 60.78125 C 116.285156 63.488281 106.1875 64.84375 96.5625 64.84375 C 92.09375 64.84375 87.035156 64.609375 81.390625 64.140625 C 75.753906 63.671875 70.941406 62.726562 66.953125 61.3125 L 66.953125 20.09375 C 69.773438 20.789062 73.0625 21.429688 76.8125 22.015625 C 80.570312 22.609375 85.273438 22.90625 90.921875 22.90625 Z M 90.921875 22.90625 "/></g></g></g><g fill="#fafaf7" fill-opacity="1"><g transform="translate(195.317137, 304.365417)"><g><path d="M 202.265625 -87.046875 C 202.265625 -69.890625 198.445312 -54.378906 190.8125 -40.515625 C 183.175781 -26.660156 172.253906 -15.617188 158.046875 -7.390625 C 143.835938 0.824219 126.628906 4.9375 106.421875 4.9375 C 86.453125 4.9375 69.359375 0.824219 55.140625 -7.390625 C 40.929688 -15.617188 30.007812 -26.660156 22.375 -40.515625 C 14.738281 -54.378906 10.921875 -69.890625 10.921875 -87.046875 C 10.921875 -107.710938 15.03125 -125.445312 23.25 -140.25 C 31.476562 -155.050781 42.816406 -166.445312 57.265625 -174.4375 C 71.710938 -182.425781 88.097656 -186.421875 106.421875 -186.421875 C 124.742188 -186.421875 141.128906 -182.425781 155.578125 -174.4375 C 170.023438 -166.445312 181.414062 -155.050781 189.75 -140.25 C 198.09375 -125.445312 202.265625 -107.710938 202.265625 -87.046875 Z M 152.234375 -89.5 C 152.234375 -105.476562 148.0625 -118.28125 139.71875 -127.90625 C 131.382812 -137.539062 120.285156 -142.359375 106.421875 -142.359375 C 92.554688 -142.359375 81.453125 -137.539062 73.109375 -127.90625 C 64.773438 -118.28125 60.609375 -105.476562 60.609375 -89.5 C 60.609375 -80.34375 62.367188 -71.945312 65.890625 -64.3125 C 69.421875 -56.675781 74.59375 -50.507812 81.40625 -45.8125 C 88.21875 -41.113281 96.554688 -38.765625 106.421875 -38.765625 C 116.523438 -38.765625 124.921875 -41.113281 131.609375 -45.8125 C 138.304688 -50.507812 143.414062 -56.675781 146.9375 -64.3125 C 150.46875 -71.945312 152.234375 -80.34375 152.234375 -89.5 Z M 152.234375 -89.5 "/></g></g></g><g fill="#fafaf7" fill-opacity="1"><g transform="translate(401.458462, 304.365417)"><g><path d="M 2.46875 -150.125 L 4.9375 -181.484375 L 20.4375 -181.484375 C 22.550781 -208.265625 30.890625 -227.523438 45.453125 -239.265625 C 60.023438 -251.015625 78.703125 -256.890625 101.484375 -256.890625 C 104.304688 -256.890625 106.832031 -256.832031 109.0625 -256.71875 C 111.289062 -256.601562 113.347656 -256.425781 115.234375 -256.1875 L 115.234375 -217.421875 C 113.347656 -217.660156 111.46875 -217.78125 109.59375 -217.78125 C 107.71875 -217.78125 105.835938 -217.78125 103.953125 -217.78125 C 94.085938 -217.78125 86.21875 -215.429688 80.34375 -210.734375 C 74.46875 -206.035156 71.53125 -198.867188 71.53125 -189.234375 L 71.53125 -181.484375 L 112.0625 -181.484375 L 112.0625 -150.125 L 70.484375 -150.125 L 70.484375 0 L 19.734375 0 L 19.734375 -150.125 Z M 2.46875 -150.125 "/></g></g></g><g fill="#fafaf7" fill-opacity="1"><g transform="translate(515.276416, 304.365417)"><g><path d="M 68.015625 0 L 20.09375 0 L 20.09375 -181.484375 L 68.015625 -181.484375 Z M 68.015625 -199.8125 L 20.09375 -199.8125 L 20.09375 -254.421875 L 68.015625 -254.421875 Z M 68.015625 -199.8125 "/></g></g></g><g fill="#fafaf7" fill-opacity="1"><g transform="translate(596.323167, 304.365417)"><g><path d="M 195.921875 -106.0625 L 65.890625 -68.015625 C 69.421875 -58.617188 75.117188 -51.097656 82.984375 -45.453125 C 90.859375 -39.816406 100.429688 -37 111.703125 -37 C 122.046875 -37 131.738281 -39.992188 140.78125 -45.984375 C 149.820312 -51.972656 155.867188 -60.609375 158.921875 -71.890625 L 199.453125 -58.140625 C 195.222656 -44.515625 188.410156 -32.941406 179.015625 -23.421875 C 169.617188 -13.910156 158.632812 -6.75 146.0625 -1.9375 C 133.5 2.871094 120.050781 5.28125 105.71875 5.28125 C 87.625 5.28125 71.585938 0.878906 57.609375 -7.921875 C 43.640625 -16.734375 32.660156 -28.597656 24.671875 -43.515625 C 16.679688 -58.429688 12.6875 -75.171875 12.6875 -93.734375 C 12.6875 -112.765625 16.914062 -129.207031 25.375 -143.0625 C 33.832031 -156.925781 45.285156 -167.617188 59.734375 -175.140625 C 74.179688 -182.660156 90.210938 -186.421875 107.828125 -186.421875 C 124.035156 -186.421875 138.363281 -183.128906 150.8125 -176.546875 C 163.269531 -169.972656 173.429688 -160.632812 181.296875 -148.53125 C 189.171875 -136.4375 194.046875 -122.28125 195.921875 -106.0625 Z M 105.015625 -148 C 90.453125 -148 79.175781 -143.066406 71.1875 -133.203125 C 63.195312 -123.335938 59.203125 -111.003906 59.203125 -96.203125 L 144.484375 -122.28125 C 139.078125 -139.425781 125.921875 -148 105.015625 -148 Z M 105.015625 -148 "/></g></g></g><g fill="#fafaf7" fill-opacity="1"><g transform="translate(799.645451, 304.365417)"><g><path d="M 67.65625 0 L 19.03125 0 L 19.03125 -254.421875 L 67.65625 -254.421875 Z M 67.65625 0 "/></g></g></g><g fill="#fafaf7" fill-opacity="1"><g transform="translate(879.28269, 304.365417)"><g><path d="M 199.453125 -254.421875 L 199.453125 0 L 157.515625 0 L 152.9375 -22.546875 C 149.882812 -18.085938 145.066406 -13.742188 138.484375 -9.515625 C 131.910156 -5.285156 124.394531 -1.820312 115.9375 0.875 C 107.476562 3.582031 98.664062 4.9375 89.5 4.9375 C 75.875 4.9375 64.1875 2.230469 54.4375 -3.171875 C 44.6875 -8.578125 36.695312 -15.914062 30.46875 -25.1875 C 24.25 -34.46875 19.613281 -44.921875 16.5625 -56.546875 C 13.507812 -68.179688 11.984375 -80.34375 11.984375 -93.03125 C 11.984375 -110.175781 14.742188 -125.796875 20.265625 -139.890625 C 25.785156 -153.992188 34.300781 -165.273438 45.8125 -173.734375 C 57.320312 -182.191406 72.003906 -186.421875 89.859375 -186.421875 C 98.785156 -186.421875 107.300781 -185.066406 115.40625 -182.359375 C 123.507812 -179.660156 130.613281 -176.195312 136.71875 -171.96875 C 142.832031 -167.738281 147.414062 -163.273438 150.46875 -158.578125 L 150.46875 -254.421875 Z M 104.3125 -142.359375 C 89.269531 -142.359375 78.398438 -137.71875 71.703125 -128.4375 C 65.015625 -119.164062 61.671875 -106.773438 61.671875 -91.265625 C 61.671875 -75.523438 65.015625 -63.25 71.703125 -54.4375 C 78.398438 -45.632812 89.269531 -41.234375 104.3125 -41.234375 C 118.632812 -41.234375 130.023438 -45.695312 138.484375 -54.625 C 146.941406 -63.550781 151.171875 -75.765625 151.171875 -91.265625 C 151.171875 -106.773438 147 -119.164062 138.65625 -128.4375 C 130.320312 -137.71875 118.875 -142.359375 104.3125 -142.359375 Z M 104.3125 -142.359375 "/></g></g></g></g></g></g><g clip-path="url(#e9bc12005d)"><g clip-path="url(#cc99ed1391)"><path fill="url(#65602e602d)" d="M 556.660156 176.582031 L 179.578125 -178.761719 L -175.855469 198.410156 L 201.226562 553.757812 Z M 556.660156 176.582031 " fill-rule="nonzero"/></g></g><g clip-path="url(#b6c625523c)"><g clip-path="url(#a53735e465)"><g transform="matrix(1, 0, 0, 1, 123, 82)"><g clip-path="url(#5250afac09)"><g clip-path="url(#d0c8feb61d)"><g clip-path="url(#13d5576c87)"><path fill="url(#14c2b217bd)" d="M 0.582031 0.742188 L 0.582031 100.871094 L 133.566406 100.871094 L 133.566406 0.742188 Z M 0.582031 0.742188 " fill-rule="nonzero"/></g></g></g></g></g></g><g clip-path="url(#4a5e7d09c9)"><g clip-path="url(#a4c7605ad9)"><g transform="matrix(1, 0, 0, 1, 86, 185)"><g clip-path="url(#33f59b41ed)"><g clip-path="url(#7280ea8481)"><g clip-path="url(#49577c9e4a)"><path fill="url(#ffcd872269)" d="M 0.753906 0.886719 L 0.753906 107.460938 L 208.015625 107.460938 L 208.015625 0.886719 Z M 0.753906 0.886719 " fill-rule="nonzero"/></g></g></g></g></g></g></svg>