<svg xmlns="http://www.w3.org/2000/svg" xmlns:xlink="http://www.w3.org/1999/xlink" width="2000" zoomAndPan="magnify" viewBox="0 0 1500 383.03998" height="500" preserveAspectRatio="xMidYMid meet" version="1.0"><defs><g/><clipPath id="ea26000e69"><path d="M 410 0 L 1498.125 0 L 1498.125 374.0625 L 410 374.0625 Z M 410 0 " clip-rule="nonzero"/></clipPath><clipPath id="3896260d04"><rect x="0" width="1089" y="0" height="375"/></clipPath><clipPath id="699e183154"><path d="M 7.859375 3.457031 L 372.945312 3.457031 L 372.945312 371.535156 L 7.859375 371.535156 Z M 7.859375 3.457031 " clip-rule="nonzero"/></clipPath><clipPath id="d7c90769a8"><path d="M 92.710938 20.027344 C 67.824219 29.898438 47.269531 46.003906 33.484375 66.335938 C 17.316406 90.339844 12.890625 118.417969 10.09375 145.34375 C 6.6875 179.757812 7.085938 211.84375 11.007812 241.339844 C 14.476562 265.03125 18.53125 289.816406 32.980469 310.417969 C 50.308594 334.808594 77.960938 352.804688 113.109375 362.277344 C 135.707031 368.527344 162.09375 371.894531 189.492188 371.910156 C 206.917969 371.667969 224.3125 370.324219 241.386719 367.601562 C 284.085938 361.078125 317.101562 345.429688 339.070312 320.980469 C 342.019531 317.851562 344.953125 314.164062 347.335938 310.496094 C 361.941406 289.863281 366.464844 265.101562 369.628906 241.210938 C 373.46875 212.039062 373.890625 179.652344 370.664062 145.433594 C 368.199219 118.390625 363.492188 90.304688 347.285156 66.433594 C 333.675781 46.082031 312.992188 29.816406 288.351562 20.03125 C 268.46875 12.042969 245.902344 6.902344 220.9375 4.875 C 209.558594 3.832031 198.753906 3.320312 187.960938 3.363281 C 151.988281 3.324219 120.332031 8.96875 92.710938 20.027344 Z M 117.105469 347.769531 C 95.058594 341.507812 64.519531 328.855469 45.453125 301.746094 C 33.296875 283.84375 29.023438 261.003906 26.171875 239.503906 C 22.285156 211.117188 21.917969 180.136719 25.359375 146.828125 C 27.382812 121.863281 31.875 95.996094 45.910156 74.824219 C 57.835938 57.035156 75.957031 42.941406 98.113281 34.257812 C 123.808594 23.53125 154.105469 18.757812 188.136719 18.578125 C 198.375 18.550781 208.628906 19.078125 219.71875 19.855469 C 243.027344 21.929688 264.203125 26.835938 282.679688 34.035156 C 304.523438 42.796875 322.929688 56.917969 334.816406 75.105469 C 348.996094 95.992188 353.082031 121.882812 355.480469 146.714844 C 358.675781 179.828125 358.222656 211.109375 354.636719 239.441406 C 351.40625 261.121094 347.652344 283.921875 335.175781 301.726562 C 332.777344 304.84375 330.378906 307.957031 327.699219 310.804688 C 308.148438 332.691406 278.398438 346.582031 239.285156 352.722656 C 222.761719 355.425781 205.921875 356.757812 189.316406 356.695312 C 163.578125 356.628906 138.867188 353.765625 117.105469 347.769531 Z M 117.105469 347.769531 " clip-rule="nonzero"/></clipPath><clipPath id="c510a6e314"><path d="M 123.410156 82.570312 L 256.738281 82.570312 L 256.738281 183 L 123.410156 183 Z M 123.410156 82.570312 " clip-rule="nonzero"/></clipPath><clipPath id="8c2ee12c64"><path d="M 186.117188 84.414062 L 125.199219 146.195312 C 124.164062 147.242188 123.582031 148.65625 123.582031 150.128906 L 123.582031 179.359375 C 123.582031 181.8125 126.035156 183.507812 128.328125 182.640625 L 169.703125 167.015625 C 171.191406 166.453125 172.371094 165.285156 172.945312 163.800781 L 187.714844 125.808594 C 188.5625 123.625 191.652344 123.625 192.5 125.808594 L 207.265625 163.800781 C 207.84375 165.285156 209.023438 166.453125 210.511719 167.015625 L 251.886719 182.640625 C 254.179688 183.507812 256.628906 181.8125 256.628906 179.359375 L 256.628906 150.128906 C 256.628906 148.65625 256.050781 147.242188 255.015625 146.195312 L 194.097656 84.414062 C 191.902344 82.1875 188.3125 82.1875 186.117188 84.414062 Z M 186.117188 84.414062 " clip-rule="nonzero"/></clipPath><clipPath id="4bcf80c3e4"><path d="M 0.488281 0.59375 L 133.738281 0.59375 L 133.738281 100.902344 L 0.488281 100.902344 Z M 0.488281 0.59375 " clip-rule="nonzero"/></clipPath><clipPath id="78106ba898"><path d="M 63.117188 2.414062 L 2.199219 64.195312 C 1.164062 65.242188 0.582031 66.65625 0.582031 68.128906 L 0.582031 97.359375 C 0.582031 99.8125 3.035156 101.507812 5.328125 100.640625 L 46.703125 85.015625 C 48.191406 84.453125 49.371094 83.285156 49.945312 81.800781 L 64.714844 43.808594 C 65.5625 41.625 68.652344 41.625 69.5 43.808594 L 84.265625 81.800781 C 84.84375 83.285156 86.023438 84.453125 87.511719 85.015625 L 128.886719 100.640625 C 131.179688 101.507812 133.628906 99.8125 133.628906 97.359375 L 133.628906 68.128906 C 133.628906 66.65625 133.050781 65.242188 132.015625 64.195312 L 71.097656 2.414062 C 68.902344 0.1875 65.3125 0.1875 63.117188 2.414062 Z M 63.117188 2.414062 " clip-rule="nonzero"/></clipPath><clipPath id="2aff6210a4"><rect x="0" width="134" y="0" height="101"/></clipPath><clipPath id="bfbf8817ff"><path d="M 86.753906 185.886719 L 294.1875 185.886719 L 294.1875 292.632812 L 86.753906 292.632812 Z M 86.753906 185.886719 " clip-rule="nonzero"/></clipPath><clipPath id="47c98c3ba8"><path d="M 253.976562 186.269531 L 211.183594 202.933594 C 209.75 203.492188 208.609375 204.613281 208.03125 206.035156 L 192.761719 243.390625 C 191.890625 245.523438 188.878906 245.523438 188.007812 243.390625 L 172.742188 206.035156 C 172.160156 204.613281 171.019531 203.492188 169.589844 202.933594 L 126.792969 186.269531 C 124.648438 185.433594 122.214844 185.996094 120.652344 187.683594 L 88.246094 222.675781 C 87.285156 223.714844 86.753906 225.070312 86.753906 226.480469 L 86.753906 288.96875 C 86.753906 292.085938 90.527344 293.636719 92.71875 291.421875 L 134.808594 248.875 C 136.914062 246.746094 140.320312 246.648438 142.542969 248.652344 L 186.632812 288.421875 C 188.765625 290.347656 192.003906 290.347656 194.136719 288.421875 L 238.226562 248.652344 C 240.453125 246.648438 243.859375 246.746094 245.964844 248.875 L 288.050781 291.421875 C 290.242188 293.636719 294.015625 292.085938 294.015625 288.96875 L 294.015625 226.480469 C 294.015625 225.070312 293.484375 223.714844 292.523438 222.675781 L 260.121094 187.683594 C 258.558594 185.996094 256.121094 185.433594 253.976562 186.269531 Z M 253.976562 186.269531 " clip-rule="nonzero"/></clipPath><clipPath id="ce52091644"><path d="M 0.753906 0.886719 L 208.183594 0.886719 L 208.183594 107.632812 L 0.753906 107.632812 Z M 0.753906 0.886719 " clip-rule="nonzero"/></clipPath><clipPath id="d8f507c0c3"><path d="M 167.976562 1.269531 L 125.183594 17.933594 C 123.75 18.492188 122.609375 19.613281 122.03125 21.035156 L 106.761719 58.390625 C 105.890625 60.523438 102.878906 60.523438 102.007812 58.390625 L 86.742188 21.035156 C 86.160156 19.613281 85.019531 18.492188 83.589844 17.933594 L 40.792969 1.269531 C 38.648438 0.433594 36.214844 0.996094 34.652344 2.683594 L 2.246094 37.675781 C 1.285156 38.714844 0.753906 40.070312 0.753906 41.480469 L 0.753906 103.96875 C 0.753906 107.085938 4.527344 108.636719 6.71875 106.421875 L 48.808594 63.875 C 50.914062 61.746094 54.320312 61.648438 56.542969 63.652344 L 100.632812 103.421875 C 102.765625 105.347656 106.003906 105.347656 108.136719 103.421875 L 152.226562 63.652344 C 154.453125 61.648438 157.859375 61.746094 159.964844 63.875 L 202.050781 106.421875 C 204.242188 108.636719 208.015625 107.085938 208.015625 103.96875 L 208.015625 41.480469 C 208.015625 40.070312 207.484375 38.714844 206.523438 37.675781 L 174.121094 2.683594 C 172.558594 0.996094 170.121094 0.433594 167.976562 1.269531 Z M 167.976562 1.269531 " clip-rule="nonzero"/></clipPath><clipPath id="786021f24a"><rect x="0" width="209" y="0" height="108"/></clipPath></defs><g clip-path="url(#ea26000e69)"><g transform="matrix(1, 0, 0, 1, 410, 0)"><g clip-path="url(#3896260d04)"><g fill="#fafaf7" fill-opacity="1"><g transform="translate(0.0997066, 304.365417)"><g><path d="M 90.921875 22.90625 C 104.078125 22.90625 114.117188 20.320312 121.046875 15.15625 C 127.972656 9.988281 132.671875 3.351562 135.140625 -4.75 C 137.609375 -12.863281 138.84375 -21.03125 138.84375 -29.25 L 138.84375 -35.59375 C 134.375 -29.25 127.441406 -23.785156 118.046875 -19.203125 C 108.648438 -14.617188 97.140625 -12.328125 83.515625 -12.328125 C 66.835938 -12.328125 53.679688 -15.613281 44.046875 -22.1875 C 34.410156 -28.769531 27.65625 -37.816406 23.78125 -49.328125 C 19.90625 -60.847656 17.96875 -74.125 17.96875 -89.15625 L 17.96875 -181.484375 L 67.65625 -181.484375 L 67.65625 -87.390625 C 67.65625 -76.347656 69.945312 -67.710938 74.53125 -61.484375 C 79.113281 -55.265625 87.507812 -52.15625 99.71875 -52.15625 C 110.757812 -52.15625 119.097656 -54.796875 124.734375 -60.078125 C 130.378906 -65.367188 135.195312 -72.828125 139.1875 -82.453125 L 139.1875 -181.484375 L 188.171875 -181.484375 L 188.171875 -28.546875 C 188.171875 -9.753906 185.234375 5.75 179.359375 17.96875 C 173.492188 30.1875 165.921875 39.703125 156.640625 46.515625 C 147.359375 53.328125 137.429688 58.082031 126.859375 60.78125 C 116.285156 63.488281 106.1875 64.84375 96.5625 64.84375 C 92.09375 64.84375 87.035156 64.609375 81.390625 64.140625 C 75.753906 63.671875 70.941406 62.726562 66.953125 61.3125 L 66.953125 20.09375 C 69.773438 20.789062 73.0625 21.429688 76.8125 22.015625 C 80.570312 22.609375 85.273438 22.90625 90.921875 22.90625 Z M 90.921875 22.90625 "/></g></g></g><g fill="#fafaf7" fill-opacity="1"><g transform="translate(195.317137, 304.365417)"><g><path d="M 202.265625 -87.046875 C 202.265625 -69.890625 198.445312 -54.378906 190.8125 -40.515625 C 183.175781 -26.660156 172.253906 -15.617188 158.046875 -7.390625 C 143.835938 0.824219 126.628906 4.9375 106.421875 4.9375 C 86.453125 4.9375 69.359375 0.824219 55.140625 -7.390625 C 40.929688 -15.617188 30.007812 -26.660156 22.375 -40.515625 C 14.738281 -54.378906 10.921875 -69.890625 10.921875 -87.046875 C 10.921875 -107.710938 15.03125 -125.445312 23.25 -140.25 C 31.476562 -155.050781 42.816406 -166.445312 57.265625 -174.4375 C 71.710938 -182.425781 88.097656 -186.421875 106.421875 -186.421875 C 124.742188 -186.421875 141.128906 -182.425781 155.578125 -174.4375 C 170.023438 -166.445312 181.414062 -155.050781 189.75 -140.25 C 198.09375 -125.445312 202.265625 -107.710938 202.265625 -87.046875 Z M 152.234375 -89.5 C 152.234375 -105.476562 148.0625 -118.28125 139.71875 -127.90625 C 131.382812 -137.539062 120.285156 -142.359375 106.421875 -142.359375 C 92.554688 -142.359375 81.453125 -137.539062 73.109375 -127.90625 C 64.773438 -118.28125 60.609375 -105.476562 60.609375 -89.5 C 60.609375 -80.34375 62.367188 -71.945312 65.890625 -64.3125 C 69.421875 -56.675781 74.59375 -50.507812 81.40625 -45.8125 C 88.21875 -41.113281 96.554688 -38.765625 106.421875 -38.765625 C 116.523438 -38.765625 124.921875 -41.113281 131.609375 -45.8125 C 138.304688 -50.507812 143.414062 -56.675781 146.9375 -64.3125 C 150.46875 -71.945312 152.234375 -80.34375 152.234375 -89.5 Z M 152.234375 -89.5 "/></g></g></g><g fill="#fafaf7" fill-opacity="1"><g transform="translate(401.458462, 304.365417)"><g><path d="M 2.46875 -150.125 L 4.9375 -181.484375 L 20.4375 -181.484375 C 22.550781 -208.265625 30.890625 -227.523438 45.453125 -239.265625 C 60.023438 -251.015625 78.703125 -256.890625 101.484375 -256.890625 C 104.304688 -256.890625 106.832031 -256.832031 109.0625 -256.71875 C 111.289062 -256.601562 113.347656 -256.425781 115.234375 -256.1875 L 115.234375 -217.421875 C 113.347656 -217.660156 111.46875 -217.78125 109.59375 -217.78125 C 107.71875 -217.78125 105.835938 -217.78125 103.953125 -217.78125 C 94.085938 -217.78125 86.21875 -215.429688 80.34375 -210.734375 C 74.46875 -206.035156 71.53125 -198.867188 71.53125 -189.234375 L 71.53125 -181.484375 L 112.0625 -181.484375 L 112.0625 -150.125 L 70.484375 -150.125 L 70.484375 0 L 19.734375 0 L 19.734375 -150.125 Z M 2.46875 -150.125 "/></g></g></g><g fill="#fafaf7" fill-opacity="1"><g transform="translate(515.276416, 304.365417)"><g><path d="M 68.015625 0 L 20.09375 0 L 20.09375 -181.484375 L 68.015625 -181.484375 Z M 68.015625 -199.8125 L 20.09375 -199.8125 L 20.09375 -254.421875 L 68.015625 -254.421875 Z M 68.015625 -199.8125 "/></g></g></g><g fill="#fafaf7" fill-opacity="1"><g transform="translate(596.323167, 304.365417)"><g><path d="M 195.921875 -106.0625 L 65.890625 -68.015625 C 69.421875 -58.617188 75.117188 -51.097656 82.984375 -45.453125 C 90.859375 -39.816406 100.429688 -37 111.703125 -37 C 122.046875 -37 131.738281 -39.992188 140.78125 -45.984375 C 149.820312 -51.972656 155.867188 -60.609375 158.921875 -71.890625 L 199.453125 -58.140625 C 195.222656 -44.515625 188.410156 -32.941406 179.015625 -23.421875 C 169.617188 -13.910156 158.632812 -6.75 146.0625 -1.9375 C 133.5 2.871094 120.050781 5.28125 105.71875 5.28125 C 87.625 5.28125 71.585938 0.878906 57.609375 -7.921875 C 43.640625 -16.734375 32.660156 -28.597656 24.671875 -43.515625 C 16.679688 -58.429688 12.6875 -75.171875 12.6875 -93.734375 C 12.6875 -112.765625 16.914062 -129.207031 25.375 -143.0625 C 33.832031 -156.925781 45.285156 -167.617188 59.734375 -175.140625 C 74.179688 -182.660156 90.210938 -186.421875 107.828125 -186.421875 C 124.035156 -186.421875 138.363281 -183.128906 150.8125 -176.546875 C 163.269531 -169.972656 173.429688 -160.632812 181.296875 -148.53125 C 189.171875 -136.4375 194.046875 -122.28125 195.921875 -106.0625 Z M 105.015625 -148 C 90.453125 -148 79.175781 -143.066406 71.1875 -133.203125 C 63.195312 -123.335938 59.203125 -111.003906 59.203125 -96.203125 L 144.484375 -122.28125 C 139.078125 -139.425781 125.921875 -148 105.015625 -148 Z M 105.015625 -148 "/></g></g></g><g fill="#fafaf7" fill-opacity="1"><g transform="translate(799.645451, 304.365417)"><g><path d="M 67.65625 0 L 19.03125 0 L 19.03125 -254.421875 L 67.65625 -254.421875 Z M 67.65625 0 "/></g></g></g><g fill="#fafaf7" fill-opacity="1"><g transform="translate(879.28269, 304.365417)"><g><path d="M 199.453125 -254.421875 L 199.453125 0 L 157.515625 0 L 152.9375 -22.546875 C 149.882812 -18.085938 145.066406 -13.742188 138.484375 -9.515625 C 131.910156 -5.285156 124.394531 -1.820312 115.9375 0.875 C 107.476562 3.582031 98.664062 4.9375 89.5 4.9375 C 75.875 4.9375 64.1875 2.230469 54.4375 -3.171875 C 44.6875 -8.578125 36.695312 -15.914062 30.46875 -25.1875 C 24.25 -34.46875 19.613281 -44.921875 16.5625 -56.546875 C 13.507812 -68.179688 11.984375 -80.34375 11.984375 -93.03125 C 11.984375 -110.175781 14.742188 -125.796875 20.265625 -139.890625 C 25.785156 -153.992188 34.300781 -165.273438 45.8125 -173.734375 C 57.320312 -182.191406 72.003906 -186.421875 89.859375 -186.421875 C 98.785156 -186.421875 107.300781 -185.066406 115.40625 -182.359375 C 123.507812 -179.660156 130.613281 -176.195312 136.71875 -171.96875 C 142.832031 -167.738281 147.414062 -163.273438 150.46875 -158.578125 L 150.46875 -254.421875 Z M 104.3125 -142.359375 C 89.269531 -142.359375 78.398438 -137.71875 71.703125 -128.4375 C 65.015625 -119.164062 61.671875 -106.773438 61.671875 -91.265625 C 61.671875 -75.523438 65.015625 -63.25 71.703125 -54.4375 C 78.398438 -45.632812 89.269531 -41.234375 104.3125 -41.234375 C 118.632812 -41.234375 130.023438 -45.695312 138.484375 -54.625 C 146.941406 -63.550781 151.171875 -75.765625 151.171875 -91.265625 C 151.171875 -106.773438 147 -119.164062 138.65625 -128.4375 C 130.320312 -137.71875 118.875 -142.359375 104.3125 -142.359375 Z M 104.3125 -142.359375 "/></g></g></g></g></g></g><g clip-path="url(#699e183154)"><g clip-path="url(#d7c90769a8)"><path fill="#fafaf7" d="M 556.660156 176.582031 L 179.578125 -178.761719 L -175.855469 198.410156 L 201.226562 553.757812 Z M 556.660156 176.582031 " fill-opacity="1" fill-rule="nonzero"/></g></g><g clip-path="url(#c510a6e314)"><g clip-path="url(#8c2ee12c64)"><g transform="matrix(1, 0, 0, 1, 123, 82)"><g clip-path="url(#2aff6210a4)"><g clip-path="url(#4bcf80c3e4)"><g clip-path="url(#78106ba898)"><path fill="#fafaf7" d="M 0.582031 0.742188 L 133.566406 0.742188 L 133.566406 100.871094 L 0.582031 100.871094 Z M 0.582031 0.742188 " fill-opacity="1" fill-rule="nonzero"/></g></g></g></g></g></g><g clip-path="url(#bfbf8817ff)"><g clip-path="url(#47c98c3ba8)"><g transform="matrix(1, 0, 0, 1, 86, 185)"><g clip-path="url(#786021f24a)"><g clip-path="url(#ce52091644)"><g clip-path="url(#d8f507c0c3)"><path fill="#fafaf7" d="M 0.753906 0.886719 L 208.015625 0.886719 L 208.015625 107.460938 L 0.753906 107.460938 Z M 0.753906 0.886719 " fill-opacity="1" fill-rule="nonzero"/></g></g></g></g></g></g></svg>