<svg xmlns="http://www.w3.org/2000/svg" xmlns:xlink="http://www.w3.org/1999/xlink" width="2000" zoomAndPan="magnify" viewBox="0 0 1500 412.499988" height="550" preserveAspectRatio="xMidYMid meet" version="1.0"><defs><g/><clipPath id="45e5afb569"><path d="M 1348 0 L 1499.089844 0 L 1499.089844 412 L 1348 412 Z M 1348 0 " clip-rule="nonzero"/></clipPath><clipPath id="5d13126ffa"><rect x="0" width="152" y="0" height="412"/></clipPath><clipPath id="25cd17dae3"><rect x="0" width="1181" y="0" height="393"/></clipPath><clipPath id="ea152359a1"><path d="M 784 1 L 1004 1 L 1004 138.53125 L 784 138.53125 Z M 784 1 " clip-rule="nonzero"/></clipPath><clipPath id="88529ee8d3"><path d="M 0.585938 14 L 195 14 L 195 409 L 0.585938 409 Z M 0.585938 14 " clip-rule="nonzero"/></clipPath><clipPath id="06bff5c512"><rect x="0" width="198" y="0" height="412"/></clipPath></defs><g clip-path="url(#45e5afb569)"><g transform="matrix(1, 0, 0, 1, 1348, 0)"><g clip-path="url(#5d13126ffa)"><g fill="#111828" fill-opacity="1"><g transform="translate(0.191915, 349.77819)"><g><path d="M 20.609375 -64.296875 C 20.609375 -76.390625 23.492188 -87.3125 29.265625 -97.0625 C 35.035156 -106.820312 42.863281 -114.585938 52.75 -120.359375 C 62.644531 -126.128906 73.5 -129.015625 85.3125 -129.015625 C 97.40625 -129.015625 108.257812 -126.128906 117.875 -120.359375 C 127.5 -114.585938 135.195312 -106.820312 140.96875 -97.0625 C 146.738281 -87.3125 149.625 -76.390625 149.625 -64.296875 C 149.625 -52.484375 146.738281 -41.695312 140.96875 -31.9375 C 135.195312 -22.1875 127.5 -14.425781 117.875 -8.65625 C 108.257812 -2.882812 97.40625 0 85.3125 0 C 73.5 0 62.644531 -2.882812 52.75 -8.65625 C 42.863281 -14.425781 35.035156 -22.1875 29.265625 -31.9375 C 23.492188 -41.695312 20.609375 -52.484375 20.609375 -64.296875 Z M 20.609375 -64.296875 "/></g></g></g></g></g></g><g transform="matrix(1, 0, 0, 1, 177, 19)"><g clip-path="url(#25cd17dae3)"><g fill="#111828" fill-opacity="1"><g transform="translate(0.883884, 329.27855)"><g><path d="M 10.984375 -51.9375 C 10.984375 -64.019531 13.046875 -74.367188 17.171875 -82.984375 C 21.296875 -91.597656 26.703125 -98.832031 33.390625 -104.6875 C 40.078125 -110.550781 47.445312 -115.40625 55.5 -119.25 C 63.5625 -123.101562 71.664062 -126.359375 79.8125 -129.015625 C 87.96875 -131.671875 95.390625 -134.050781 102.078125 -136.15625 C 108.765625 -138.257812 114.164062 -140.546875 118.28125 -143.015625 C 122.40625 -145.492188 124.46875 -148.472656 124.46875 -151.953125 C 124.46875 -155.617188 122.863281 -158.046875 119.65625 -159.234375 C 116.457031 -160.421875 113.484375 -161.015625 110.734375 -161.015625 C 105.609375 -161.015625 101.117188 -159.78125 97.265625 -157.3125 C 93.421875 -154.84375 89.664062 -152.050781 86 -148.9375 C 82.34375 -145.820312 78.222656 -143.023438 73.640625 -140.546875 C 69.054688 -138.078125 63.5625 -136.84375 57.15625 -136.84375 C 47.257812 -136.84375 39.332031 -139.910156 33.375 -146.046875 C 27.425781 -152.179688 24.453125 -159.460938 24.453125 -167.890625 C 24.453125 -174.304688 26.097656 -180.765625 29.390625 -187.265625 C 32.691406 -193.765625 37.773438 -199.757812 44.640625 -205.25 C 51.515625 -210.75 60.351562 -215.191406 71.15625 -218.578125 C 81.96875 -221.972656 94.882812 -223.671875 109.90625 -223.671875 C 127.125 -223.671875 141.78125 -221.472656 153.875 -217.078125 C 165.96875 -212.679688 175.90625 -206.910156 183.6875 -199.765625 C 191.476562 -192.617188 197.570312 -184.832031 201.96875 -176.40625 C 206.363281 -167.976562 209.429688 -159.734375 211.171875 -151.671875 C 212.910156 -143.617188 213.78125 -136.566406 213.78125 -130.515625 L 213.78125 -53.3125 C 213.78125 -43.050781 215.289062 -34.347656 218.3125 -27.203125 C 221.332031 -20.054688 226.78125 -16.484375 234.65625 -16.484375 L 234.65625 -13.734375 C 227.332031 -9.523438 218.90625 -5.3125 209.375 -1.09375 C 199.851562 3.113281 188.585938 5.21875 175.578125 5.21875 C 165.691406 5.21875 157.453125 2.742188 150.859375 -2.203125 C 144.265625 -7.148438 139.222656 -13.421875 135.734375 -21.015625 C 132.253906 -28.617188 130.242188 -36.359375 129.703125 -44.234375 C 124.203125 -27.015625 116.140625 -14.46875 105.515625 -6.59375 C 94.890625 1.28125 82.25 5.21875 67.59375 5.21875 C 57.707031 5.21875 48.457031 2.882812 39.84375 -1.78125 C 31.226562 -6.457031 24.265625 -13.050781 18.953125 -21.5625 C 13.640625 -30.082031 10.984375 -40.207031 10.984375 -51.9375 Z M 93.15625 -74.734375 C 93.15625 -69.796875 93.929688 -64.898438 95.484375 -60.046875 C 97.046875 -55.191406 99.425781 -51.207031 102.625 -48.09375 C 105.832031 -44.976562 109.726562 -43.421875 114.3125 -43.421875 C 117.96875 -43.421875 121.398438 -44.609375 124.609375 -46.984375 C 127.816406 -49.367188 129.421875 -51.296875 129.421875 -52.765625 L 129.421875 -164.59375 C 129.421875 -168.4375 129.421875 -173.425781 129.421875 -179.5625 C 129.421875 -185.707031 128.914062 -191.800781 127.90625 -197.84375 C 126.90625 -203.882812 125.03125 -209.007812 122.28125 -213.21875 C 119.53125 -217.4375 115.40625 -219.546875 109.90625 -219.546875 C 106.0625 -219.546875 103.128906 -217.894531 101.109375 -214.59375 C 99.097656 -211.300781 97.726562 -207.6875 97 -203.75 C 96.269531 -199.8125 95.90625 -196.832031 95.90625 -194.8125 C 95.90625 -186.757812 97.875 -180.757812 101.8125 -176.8125 C 105.75 -172.875 109.914062 -169.898438 114.3125 -167.890625 C 118.15625 -166.054688 121.632812 -164.175781 124.75 -162.25 C 127.863281 -160.332031 129.421875 -157.175781 129.421875 -152.78125 C 129.421875 -148.382812 128.179688 -144.945312 125.703125 -142.46875 C 123.234375 -140 120.210938 -137.484375 116.640625 -134.921875 C 113.066406 -132.359375 109.492188 -128.875 105.921875 -124.46875 C 102.347656 -120.070312 99.328125 -113.984375 96.859375 -106.203125 C 94.390625 -98.421875 93.15625 -87.929688 93.15625 -74.734375 Z M 93.15625 -74.734375 "/></g></g></g><g fill="#111828" fill-opacity="1"><g transform="translate(233.338441, 329.27855)"><g><path d="M 21.15625 -255.828125 C 21.15625 -264.429688 20.101562 -271.390625 18 -276.703125 C 15.894531 -282.015625 13.421875 -285.90625 10.578125 -288.375 C 7.734375 -290.851562 5.125 -292.09375 2.75 -292.09375 L 2.75 -294.84375 C 10.257812 -294.84375 18.726562 -295.664062 28.15625 -297.3125 C 37.59375 -298.957031 47.070312 -301.015625 56.59375 -303.484375 C 66.125 -305.960938 74.828125 -308.53125 82.703125 -311.1875 C 90.585938 -313.84375 96.632812 -316.269531 100.84375 -318.46875 L 103.59375 -318.46875 L 103.59375 -179.703125 C 105.601562 -186.847656 109.582031 -193.804688 115.53125 -200.578125 C 121.488281 -207.359375 128.632812 -212.898438 136.96875 -217.203125 C 145.3125 -221.515625 153.96875 -223.671875 162.9375 -223.671875 C 175.769531 -223.671875 186.8125 -221.332031 196.0625 -216.65625 C 205.3125 -211.988281 213.003906 -205.851562 219.140625 -198.25 C 225.273438 -190.644531 230.171875 -182.304688 233.828125 -173.234375 C 237.492188 -164.171875 240.101562 -155.101562 241.65625 -146.03125 C 243.21875 -136.96875 244 -128.773438 244 -121.453125 C 244 -104.234375 241.4375 -88.25 236.3125 -73.5 C 231.1875 -58.757812 223.859375 -45.890625 214.328125 -34.890625 C 204.804688 -23.898438 193.265625 -15.335938 179.703125 -9.203125 C 166.148438 -3.066406 150.945312 0 134.09375 0 L 3.296875 0 L 3.296875 -2.75 C 9.710938 -4.394531 14.289062 -8.238281 17.03125 -14.28125 C 19.78125 -20.332031 21.15625 -28.394531 21.15625 -38.46875 Z M 103.59375 -155.25 L 103.59375 -5.5 C 115.5 -6.226562 125.253906 -9.707031 132.859375 -15.9375 C 140.460938 -22.164062 146.414062 -30.453125 150.71875 -40.796875 C 155.019531 -51.148438 158.039062 -62.921875 159.78125 -76.109375 C 161.519531 -89.304688 162.390625 -103.046875 162.390625 -117.328125 C 162.390625 -125.023438 161.609375 -132.859375 160.046875 -140.828125 C 158.492188 -148.796875 156.207031 -156.125 153.1875 -162.8125 C 150.164062 -169.5 146.316406 -174.851562 141.640625 -178.875 C 136.972656 -182.90625 131.617188 -184.921875 125.578125 -184.921875 C 119.347656 -184.921875 114.628906 -183.410156 111.421875 -180.390625 C 108.210938 -177.367188 106.101562 -173.613281 105.09375 -169.125 C 104.09375 -164.632812 103.59375 -160.007812 103.59375 -155.25 Z M 103.59375 -155.25 "/></g></g></g><g fill="#111828" fill-opacity="1"><g transform="translate(483.378254, 329.27855)"><g><path d="M 2.75 -294.84375 C 10.257812 -294.84375 18.726562 -295.664062 28.15625 -297.3125 C 37.59375 -298.957031 47.070312 -301.015625 56.59375 -303.484375 C 66.125 -305.960938 74.828125 -308.53125 82.703125 -311.1875 C 90.585938 -313.84375 96.632812 -316.269531 100.84375 -318.46875 L 103.59375 -318.46875 L 103.59375 -38.46875 C 103.59375 -28.394531 104.96875 -20.332031 107.71875 -14.28125 C 110.46875 -8.238281 115.046875 -4.394531 121.453125 -2.75 L 121.453125 0 L 3.296875 0 L 3.296875 -2.75 C 9.710938 -4.394531 14.289062 -8.238281 17.03125 -14.28125 C 19.78125 -20.332031 21.15625 -28.394531 21.15625 -38.46875 L 21.15625 -255.828125 C 21.15625 -264.429688 20.101562 -271.390625 18 -276.703125 C 15.894531 -282.015625 13.421875 -285.90625 10.578125 -288.375 C 7.734375 -290.851562 5.125 -292.09375 2.75 -292.09375 Z M 2.75 -294.84375 "/></g></g></g><g fill="#c84b31" fill-opacity="1"><g transform="translate(602.63788, 329.27855)"><g><path d="M 125.578125 5.21875 C 109.640625 5.21875 94.753906 2.242188 80.921875 -3.703125 C 67.085938 -9.660156 54.953125 -17.859375 44.515625 -28.296875 C 34.078125 -38.742188 25.878906 -50.878906 19.921875 -64.703125 C 13.960938 -78.535156 10.984375 -93.332031 10.984375 -109.09375 C 10.984375 -124.84375 13.640625 -139.632812 18.953125 -153.46875 C 24.265625 -167.300781 31.773438 -179.4375 41.484375 -189.875 C 51.203125 -200.3125 62.703125 -208.503906 75.984375 -214.453125 C 89.265625 -220.410156 103.867188 -223.390625 119.796875 -223.390625 C 140.679688 -223.390625 158.359375 -220.179688 172.828125 -213.765625 C 187.304688 -207.359375 198.347656 -198.796875 205.953125 -188.078125 C 213.554688 -177.367188 217.359375 -165.507812 217.359375 -152.5 C 217.359375 -134.363281 209.9375 -120.625 195.09375 -111.28125 C 180.257812 -101.9375 156.265625 -97.265625 123.109375 -97.265625 L 98.375 -97.265625 C 106.976562 -83.710938 118.195312 -73.363281 132.03125 -66.21875 C 145.863281 -59.070312 161.476562 -55.5 178.875 -55.5 C 185.101562 -55.5 191.054688 -56.09375 196.734375 -57.28125 C 202.421875 -58.476562 208.101562 -60.269531 213.78125 -62.65625 C 213.78125 -53.125 211.351562 -44.234375 206.5 -35.984375 C 201.644531 -27.742188 195.050781 -20.507812 186.71875 -14.28125 C 178.382812 -8.0625 168.945312 -3.257812 158.40625 0.125 C 147.875 3.519531 136.929688 5.21875 125.578125 5.21875 Z M 95.34375 -102.5 L 97 -102.5 C 106.15625 -102.5 113.847656 -104.328125 120.078125 -107.984375 C 126.304688 -111.648438 131.34375 -116.550781 135.1875 -122.6875 C 139.039062 -128.820312 141.789062 -135.550781 143.4375 -142.875 C 145.082031 -150.207031 145.90625 -157.445312 145.90625 -164.59375 C 145.90625 -170.457031 145.3125 -176.457031 144.125 -182.59375 C 142.9375 -188.726562 141.054688 -194.40625 138.484375 -199.625 C 135.921875 -204.84375 132.671875 -209.101562 128.734375 -212.40625 C 124.796875 -215.707031 120.171875 -217.359375 114.859375 -217.359375 C 108.628906 -217.359375 103.359375 -215.570312 99.046875 -212 C 94.742188 -208.425781 91.3125 -203.796875 88.75 -198.109375 C 86.1875 -192.429688 84.351562 -186.523438 83.25 -180.390625 C 82.15625 -174.253906 81.609375 -168.53125 81.609375 -163.21875 C 81.609375 -151.125 82.796875 -139.992188 85.171875 -129.828125 C 87.554688 -119.660156 90.945312 -110.550781 95.34375 -102.5 Z M 95.34375 -102.5 "/></g></g></g><g fill="#c84b31" fill-opacity="1"><g transform="translate(817.781977, 329.27855)"><g><path d="M 10.984375 -51.9375 C 10.984375 -64.019531 13.046875 -74.367188 17.171875 -82.984375 C 21.296875 -91.597656 26.703125 -98.832031 33.390625 -104.6875 C 40.078125 -110.550781 47.445312 -115.40625 55.5 -119.25 C 63.5625 -123.101562 71.664062 -126.359375 79.8125 -129.015625 C 87.96875 -131.671875 95.390625 -134.050781 102.078125 -136.15625 C 108.765625 -138.257812 114.164062 -140.546875 118.28125 -143.015625 C 122.40625 -145.492188 124.46875 -148.472656 124.46875 -151.953125 C 124.46875 -155.617188 122.863281 -158.046875 119.65625 -159.234375 C 116.457031 -160.421875 113.484375 -161.015625 110.734375 -161.015625 C 105.609375 -161.015625 101.117188 -159.78125 97.265625 -157.3125 C 93.421875 -154.84375 89.664062 -152.050781 86 -148.9375 C 82.34375 -145.820312 78.222656 -143.023438 73.640625 -140.546875 C 69.054688 -138.078125 63.5625 -136.84375 57.15625 -136.84375 C 47.257812 -136.84375 39.332031 -139.910156 33.375 -146.046875 C 27.425781 -152.179688 24.453125 -159.460938 24.453125 -167.890625 C 24.453125 -174.304688 26.097656 -180.765625 29.390625 -187.265625 C 32.691406 -193.765625 37.773438 -199.757812 44.640625 -205.25 C 51.515625 -210.75 60.351562 -215.191406 71.15625 -218.578125 C 81.96875 -221.972656 94.882812 -223.671875 109.90625 -223.671875 C 127.125 -223.671875 141.78125 -221.472656 153.875 -217.078125 C 165.96875 -212.679688 175.90625 -206.910156 183.6875 -199.765625 C 191.476562 -192.617188 197.570312 -184.832031 201.96875 -176.40625 C 206.363281 -167.976562 209.429688 -159.734375 211.171875 -151.671875 C 212.910156 -143.617188 213.78125 -136.566406 213.78125 -130.515625 L 213.78125 -53.3125 C 213.78125 -43.050781 215.289062 -34.347656 218.3125 -27.203125 C 221.332031 -20.054688 226.78125 -16.484375 234.65625 -16.484375 L 234.65625 -13.734375 C 227.332031 -9.523438 218.90625 -5.3125 209.375 -1.09375 C 199.851562 3.113281 188.585938 5.21875 175.578125 5.21875 C 165.691406 5.21875 157.453125 2.742188 150.859375 -2.203125 C 144.265625 -7.148438 139.222656 -13.421875 135.734375 -21.015625 C 132.253906 -28.617188 130.242188 -36.359375 129.703125 -44.234375 C 124.203125 -27.015625 116.140625 -14.46875 105.515625 -6.59375 C 94.890625 1.28125 82.25 5.21875 67.59375 5.21875 C 57.707031 5.21875 48.457031 2.882812 39.84375 -1.78125 C 31.226562 -6.457031 24.265625 -13.050781 18.953125 -21.5625 C 13.640625 -30.082031 10.984375 -40.207031 10.984375 -51.9375 Z M 93.15625 -74.734375 C 93.15625 -69.796875 93.929688 -64.898438 95.484375 -60.046875 C 97.046875 -55.191406 99.425781 -51.207031 102.625 -48.09375 C 105.832031 -44.976562 109.726562 -43.421875 114.3125 -43.421875 C 117.96875 -43.421875 121.398438 -44.609375 124.609375 -46.984375 C 127.816406 -49.367188 129.421875 -51.296875 129.421875 -52.765625 L 129.421875 -164.59375 C 129.421875 -168.4375 129.421875 -173.425781 129.421875 -179.5625 C 129.421875 -185.707031 128.914062 -191.800781 127.90625 -197.84375 C 126.90625 -203.882812 125.03125 -209.007812 122.28125 -213.21875 C 119.53125 -217.4375 115.40625 -219.546875 109.90625 -219.546875 C 106.0625 -219.546875 103.128906 -217.894531 101.109375 -214.59375 C 99.097656 -211.300781 97.726562 -207.6875 97 -203.75 C 96.269531 -199.8125 95.90625 -196.832031 95.90625 -194.8125 C 95.90625 -186.757812 97.875 -180.757812 101.8125 -176.8125 C 105.75 -172.875 109.914062 -169.898438 114.3125 -167.890625 C 118.15625 -166.054688 121.632812 -164.175781 124.75 -162.25 C 127.863281 -160.332031 129.421875 -157.175781 129.421875 -152.78125 C 129.421875 -148.382812 128.179688 -144.945312 125.703125 -142.46875 C 123.234375 -140 120.210938 -137.484375 116.640625 -134.921875 C 113.066406 -132.359375 109.492188 -128.875 105.921875 -124.46875 C 102.347656 -120.070312 99.328125 -113.984375 96.859375 -106.203125 C 94.390625 -98.421875 93.15625 -87.929688 93.15625 -74.734375 Z M 93.15625 -74.734375 "/></g></g></g><g fill="#c84b31" fill-opacity="1"><g transform="translate(1050.236556, 329.27855)"><g><path d="M 18.40625 -213.5 L 0 -213.5 L 0 -218.71875 C 6.957031 -218.71875 14.96875 -219.769531 24.03125 -221.875 C 33.101562 -223.988281 42.3125 -226.875 51.65625 -230.53125 C 61 -234.195312 69.742188 -238.320312 77.890625 -242.90625 C 86.046875 -247.488281 92.78125 -252.25 98.09375 -257.1875 L 100.84375 -257.1875 L 100.84375 -218.71875 L 127.765625 -218.71875 L 127.765625 -213.5 L 100.84375 -213.5 L 100.84375 -100.296875 C 100.84375 -82.523438 101.570312 -67.914062 103.03125 -56.46875 C 104.5 -45.019531 107.296875 -36.59375 111.421875 -31.1875 C 115.546875 -25.78125 121.453125 -23.078125 129.140625 -23.078125 C 129.140625 -15.929688 125.566406 -9.378906 118.421875 -3.421875 C 111.285156 2.523438 101.125 5.5 87.9375 5.5 C 72.726562 5.5 60.539062 2.476562 51.375 -3.5625 C 42.21875 -9.613281 35.257812 -17.769531 30.5 -28.03125 C 25.738281 -38.289062 22.53125 -49.691406 20.875 -62.234375 C 19.226562 -74.785156 18.40625 -87.472656 18.40625 -100.296875 Z M 18.40625 -213.5 "/></g></g></g></g></g><g clip-path="url(#ea152359a1)"><path fill="#c84b31" d="M 850.800781 138.308594 C 850.800781 138.308594 865.601562 105.773438 853.304688 76.722656 C 853.304688 76.722656 857.753906 94.949219 852.050781 107.511719 C 852.050781 107.511719 845.984375 91.183594 828.585938 88.753906 C 811.1875 86.320312 757.628906 58.386719 800.484375 36.199219 C 843.335938 14.019531 858.875 22.644531 858.875 22.644531 C 858.875 22.644531 852.277344 15.09375 835.21875 19.347656 C 835.21875 19.347656 878.695312 -17.273438 917.878906 15.132812 C 917.878906 15.132812 926.4375 23.304688 930.457031 30.261719 C 930.457031 30.261719 917.046875 36.402344 907.839844 44.28125 C 907.839844 44.28125 937.957031 24.972656 971.511719 35.992188 C 1005.066406 47.007812 1008.265625 71.394531 998.117188 75.972656 C 987.96875 80.554688 960.367188 94.25 960.367188 94.25 C 960.367188 94.25 964.582031 83.816406 969.101562 80.566406 C 969.101562 80.566406 948.863281 88.730469 946.863281 134.03125 C 946.855469 134.035156 892.507812 113.589844 850.800781 138.308594 " fill-opacity="1" fill-rule="evenodd"/></g><g transform="matrix(1, 0, 0, 1, 2, 0)"><g clip-path="url(#06bff5c512)"><g clip-path="url(#88529ee8d3)"><g fill="#111828" fill-opacity="1"><g transform="translate(0.71021, 400.603143)"><g><path d="M 27.609375 -320.25 L 0 -320.25 L 0 -328.09375 C 10.4375 -328.09375 22.457031 -329.671875 36.0625 -332.828125 C 49.664062 -335.984375 63.472656 -340.3125 77.484375 -345.8125 C 91.503906 -351.3125 104.625 -357.492188 116.84375 -364.359375 C 129.070312 -371.234375 139.171875 -378.378906 147.140625 -385.796875 L 151.265625 -385.796875 L 151.265625 -328.09375 L 191.65625 -328.09375 L 191.65625 -320.25 L 151.265625 -320.25 L 151.265625 -150.4375 C 151.265625 -123.789062 152.363281 -101.878906 154.5625 -84.703125 C 156.757812 -67.523438 160.945312 -54.882812 167.125 -46.78125 C 173.3125 -38.675781 182.175781 -34.625 193.71875 -34.625 C 193.71875 -23.90625 188.359375 -14.078125 177.640625 -5.140625 C 166.929688 3.785156 151.679688 8.25 131.890625 8.25 C 109.085938 8.25 90.816406 3.71875 77.078125 -5.34375 C 63.335938 -14.414062 52.894531 -26.644531 45.75 -42.03125 C 38.601562 -57.425781 33.789062 -74.535156 31.3125 -93.359375 C 28.84375 -112.179688 27.609375 -131.207031 27.609375 -150.4375 Z M 27.609375 -320.25 "/></g></g></g></g></g></g></svg>