<svg xmlns="http://www.w3.org/2000/svg" xmlns:xlink="http://www.w3.org/1999/xlink" width="2000" zoomAndPan="magnify" viewBox="0 0 1500 383.03998" height="500" preserveAspectRatio="xMidYMid meet" version="1.0"><defs><g/><clipPath id="b997d491eb"><path d="M 410 0 L 1498.125 0 L 1498.125 374.0625 L 410 374.0625 Z M 410 0 " clip-rule="nonzero"/></clipPath><clipPath id="41868199b6"><rect x="0" width="1089" y="0" height="375"/></clipPath><clipPath id="e8684c3de1"><path d="M 7.859375 3.457031 L 372.945312 3.457031 L 372.945312 371.535156 L 7.859375 371.535156 Z M 7.859375 3.457031 " clip-rule="nonzero"/></clipPath><clipPath id="4372af47f9"><path d="M 92.710938 20.027344 C 67.824219 29.898438 47.269531 46.003906 33.484375 66.335938 C 17.316406 90.339844 12.890625 118.417969 10.09375 145.34375 C 6.6875 179.757812 7.085938 211.84375 11.007812 241.339844 C 14.476562 265.03125 18.53125 289.816406 32.980469 310.417969 C 50.308594 334.808594 77.960938 352.804688 113.109375 362.277344 C 135.707031 368.527344 162.09375 371.894531 189.492188 371.910156 C 206.917969 371.667969 224.3125 370.324219 241.386719 367.601562 C 284.085938 361.078125 317.101562 345.429688 339.070312 320.980469 C 342.019531 317.851562 344.953125 314.164062 347.335938 310.496094 C 361.941406 289.863281 366.464844 265.101562 369.628906 241.210938 C 373.46875 212.039062 373.890625 179.652344 370.664062 145.433594 C 368.199219 118.390625 363.492188 90.304688 347.285156 66.433594 C 333.675781 46.082031 312.992188 29.816406 288.351562 20.03125 C 268.46875 12.042969 245.902344 6.902344 220.9375 4.875 C 209.558594 3.832031 198.753906 3.320312 187.960938 3.363281 C 151.988281 3.324219 120.332031 8.96875 92.710938 20.027344 Z M 117.105469 347.769531 C 95.058594 341.507812 64.519531 328.855469 45.453125 301.746094 C 33.296875 283.84375 29.023438 261.003906 26.171875 239.503906 C 22.285156 211.117188 21.917969 180.136719 25.359375 146.828125 C 27.382812 121.863281 31.875 95.996094 45.910156 74.824219 C 57.835938 57.035156 75.957031 42.941406 98.113281 34.257812 C 123.808594 23.53125 154.105469 18.757812 188.136719 18.578125 C 198.375 18.550781 208.628906 19.078125 219.71875 19.855469 C 243.027344 21.929688 264.203125 26.835938 282.679688 34.035156 C 304.523438 42.796875 322.929688 56.917969 334.816406 75.105469 C 348.996094 95.992188 353.082031 121.882812 355.480469 146.714844 C 358.675781 179.828125 358.222656 211.109375 354.636719 239.441406 C 351.40625 261.121094 347.652344 283.921875 335.175781 301.726562 C 332.777344 304.84375 330.378906 307.957031 327.699219 310.804688 C 308.148438 332.691406 278.398438 346.582031 239.285156 352.722656 C 222.761719 355.425781 205.921875 356.757812 189.316406 356.695312 C 163.578125 356.628906 138.867188 353.765625 117.105469 347.769531 Z M 117.105469 347.769531 " clip-rule="nonzero"/></clipPath><linearGradient x1="-0.0891512" gradientTransform="matrix(-268.270349, 284.681577, -284.681577, -268.270349, 344.522456, 24.591197)" y1="0" x2="1.235749" gradientUnits="userSpaceOnUse" y2="0" id="f669550c65"><stop stop-opacity="1" stop-color="rgb(89.408875%, 98.039246%, 54.899597%)" offset="0"/><stop stop-opacity="1" stop-color="rgb(89.408875%, 98.039246%, 54.899597%)" offset="0.0625"/><stop stop-opacity="1" stop-color="rgb(89.294434%, 98.002625%, 54.478455%)" offset="0.0664062"/><stop stop-opacity="1" stop-color="rgb(89.181519%, 97.967529%, 54.057312%)" offset="0.0703125"/><stop stop-opacity="1" stop-color="rgb(88.885498%, 97.874451%, 52.967834%)" offset="0.0742187"/><stop stop-opacity="1" stop-color="rgb(88.591003%, 97.782898%, 51.879883%)" offset="0.078125"/><stop stop-opacity="1" stop-color="rgb(88.294983%, 97.689819%, 50.790405%)" offset="0.0820312"/><stop stop-opacity="1" stop-color="rgb(88.000488%, 97.598267%, 49.702454%)" offset="0.0859375"/><stop stop-opacity="1" stop-color="rgb(87.705994%, 97.506714%, 48.612976%)" offset="0.0898437"/><stop stop-opacity="1" stop-color="rgb(87.411499%, 97.415161%, 47.525024%)" offset="0.09375"/><stop stop-opacity="1" stop-color="rgb(87.115479%, 97.322083%, 46.435547%)" offset="0.0976562"/><stop stop-opacity="1" stop-color="rgb(86.820984%, 97.23053%, 45.347595%)" offset="0.101562"/><stop stop-opacity="1" stop-color="rgb(86.524963%, 97.137451%, 44.258118%)" offset="0.105469"/><stop stop-opacity="1" stop-color="rgb(86.230469%, 97.045898%, 43.170166%)" offset="0.109375"/><stop stop-opacity="1" stop-color="rgb(85.935974%, 96.95282%, 42.080688%)" offset="0.113281"/><stop stop-opacity="1" stop-color="rgb(85.641479%, 96.861267%, 40.992737%)" offset="0.117187"/><stop stop-opacity="1" stop-color="rgb(85.345459%, 96.768188%, 39.903259%)" offset="0.121094"/><stop stop-opacity="1" stop-color="rgb(85.050964%, 96.676636%, 38.815308%)" offset="0.125"/><stop stop-opacity="1" stop-color="rgb(84.754944%, 96.583557%, 37.72583%)" offset="0.128906"/><stop stop-opacity="1" stop-color="rgb(84.460449%, 96.492004%, 36.637878%)" offset="0.132812"/><stop stop-opacity="1" stop-color="rgb(84.165955%, 96.398926%, 35.548401%)" offset="0.136719"/><stop stop-opacity="1" stop-color="rgb(83.87146%, 96.307373%, 34.460449%)" offset="0.140625"/><stop stop-opacity="1" stop-color="rgb(83.575439%, 96.21582%, 33.370972%)" offset="0.144531"/><stop stop-opacity="1" stop-color="rgb(83.280945%, 96.124268%, 32.28302%)" offset="0.148437"/><stop stop-opacity="1" stop-color="rgb(82.888794%, 95.735168%, 31.871033%)" offset="0.152344"/><stop stop-opacity="1" stop-color="rgb(82.496643%, 95.347595%, 31.459045%)" offset="0.15625"/><stop stop-opacity="1" stop-color="rgb(82.072449%, 94.865417%, 31.262207%)" offset="0.160156"/><stop stop-opacity="1" stop-color="rgb(81.64978%, 94.384766%, 31.065369%)" offset="0.164062"/><stop stop-opacity="1" stop-color="rgb(81.225586%, 93.902588%, 30.86853%)" offset="0.167969"/><stop stop-opacity="1" stop-color="rgb(80.802917%, 93.421936%, 30.671692%)" offset="0.171875"/><stop stop-opacity="1" stop-color="rgb(80.378723%, 92.941284%, 30.473328%)" offset="0.175781"/><stop stop-opacity="1" stop-color="rgb(79.956055%, 92.460632%, 30.276489%)" offset="0.179687"/><stop stop-opacity="1" stop-color="rgb(79.53186%, 91.978455%, 30.079651%)" offset="0.183594"/><stop stop-opacity="1" stop-color="rgb(79.109192%, 91.497803%, 29.882812%)" offset="0.1875"/><stop stop-opacity="1" stop-color="rgb(78.684998%, 91.015625%, 29.685974%)" offset="0.191406"/><stop stop-opacity="1" stop-color="rgb(78.262329%, 90.534973%, 29.489136%)" offset="0.195312"/><stop stop-opacity="1" stop-color="rgb(77.838135%, 90.052795%, 29.290771%)" offset="0.199219"/><stop stop-opacity="1" stop-color="rgb(77.415466%, 89.572144%, 29.093933%)" offset="0.203125"/><stop stop-opacity="1" stop-color="rgb(76.991272%, 89.089966%, 28.897095%)" offset="0.207031"/><stop stop-opacity="1" stop-color="rgb(76.568604%, 88.609314%, 28.700256%)" offset="0.210937"/><stop stop-opacity="1" stop-color="rgb(76.144409%, 88.127136%, 28.503418%)" offset="0.214844"/><stop stop-opacity="1" stop-color="rgb(75.721741%, 87.646484%, 28.30658%)" offset="0.21875"/><stop stop-opacity="1" stop-color="rgb(75.299072%, 87.164307%, 28.108215%)" offset="0.222656"/><stop stop-opacity="1" stop-color="rgb(74.876404%, 86.683655%, 27.911377%)" offset="0.226562"/><stop stop-opacity="1" stop-color="rgb(74.452209%, 86.203003%, 27.714539%)" offset="0.230469"/><stop stop-opacity="1" stop-color="rgb(74.029541%, 85.722351%, 27.5177%)" offset="0.234375"/><stop stop-opacity="1" stop-color="rgb(73.605347%, 85.240173%, 27.320862%)" offset="0.238281"/><stop stop-opacity="1" stop-color="rgb(73.182678%, 84.759521%, 27.124023%)" offset="0.242187"/><stop stop-opacity="1" stop-color="rgb(72.758484%, 84.277344%, 26.925659%)" offset="0.246094"/><stop stop-opacity="1" stop-color="rgb(72.335815%, 83.796692%, 26.728821%)" offset="0.25"/><stop stop-opacity="1" stop-color="rgb(71.911621%, 83.314514%, 26.531982%)" offset="0.253906"/><stop stop-opacity="1" stop-color="rgb(71.488953%, 82.833862%, 26.335144%)" offset="0.257812"/><stop stop-opacity="1" stop-color="rgb(71.064758%, 82.351685%, 26.13678%)" offset="0.261719"/><stop stop-opacity="1" stop-color="rgb(70.64209%, 81.871033%, 25.939941%)" offset="0.265625"/><stop stop-opacity="1" stop-color="rgb(70.217896%, 81.388855%, 25.743103%)" offset="0.269531"/><stop stop-opacity="1" stop-color="rgb(69.795227%, 80.908203%, 25.546265%)" offset="0.273437"/><stop stop-opacity="1" stop-color="rgb(69.371033%, 80.426025%, 25.349426%)" offset="0.277344"/><stop stop-opacity="1" stop-color="rgb(68.948364%, 79.945374%, 25.152588%)" offset="0.28125"/><stop stop-opacity="1" stop-color="rgb(68.52417%, 79.463196%, 24.954224%)" offset="0.285156"/><stop stop-opacity="1" stop-color="rgb(68.101501%, 78.982544%, 24.757385%)" offset="0.289062"/><stop stop-opacity="1" stop-color="rgb(67.678833%, 78.501892%, 24.560547%)" offset="0.292969"/><stop stop-opacity="1" stop-color="rgb(67.256165%, 78.02124%, 24.363708%)" offset="0.296875"/><stop stop-opacity="1" stop-color="rgb(66.83197%, 77.539062%, 24.16687%)" offset="0.300781"/><stop stop-opacity="1" stop-color="rgb(66.409302%, 77.058411%, 23.970032%)" offset="0.304687"/><stop stop-opacity="1" stop-color="rgb(65.985107%, 76.576233%, 23.771667%)" offset="0.308594"/><stop stop-opacity="1" stop-color="rgb(65.562439%, 76.095581%, 23.574829%)" offset="0.3125"/><stop stop-opacity="1" stop-color="rgb(65.138245%, 75.613403%, 23.377991%)" offset="0.316406"/><stop stop-opacity="1" stop-color="rgb(64.715576%, 75.132751%, 23.181152%)" offset="0.320312"/><stop stop-opacity="1" stop-color="rgb(64.291382%, 74.650574%, 22.984314%)" offset="0.324219"/><stop stop-opacity="1" stop-color="rgb(63.868713%, 74.169922%, 22.787476%)" offset="0.328125"/><stop stop-opacity="1" stop-color="rgb(63.444519%, 73.687744%, 22.589111%)" offset="0.332031"/><stop stop-opacity="1" stop-color="rgb(63.021851%, 73.207092%, 22.392273%)" offset="0.335937"/><stop stop-opacity="1" stop-color="rgb(62.597656%, 72.724915%, 22.195435%)" offset="0.339844"/><stop stop-opacity="1" stop-color="rgb(62.174988%, 72.244263%, 21.998596%)" offset="0.34375"/><stop stop-opacity="1" stop-color="rgb(61.750793%, 71.763611%, 21.801758%)" offset="0.347656"/><stop stop-opacity="1" stop-color="rgb(61.328125%, 71.282959%, 21.604919%)" offset="0.351562"/><stop stop-opacity="1" stop-color="rgb(60.903931%, 70.800781%, 21.406555%)" offset="0.355469"/><stop stop-opacity="1" stop-color="rgb(60.481262%, 70.320129%, 21.209717%)" offset="0.359375"/><stop stop-opacity="1" stop-color="rgb(60.058594%, 69.837952%, 21.012878%)" offset="0.363281"/><stop stop-opacity="1" stop-color="rgb(59.635925%, 69.3573%, 20.81604%)" offset="0.367187"/><stop stop-opacity="1" stop-color="rgb(59.211731%, 68.875122%, 20.619202%)" offset="0.371094"/><stop stop-opacity="1" stop-color="rgb(58.789062%, 68.39447%, 20.422363%)" offset="0.375"/><stop stop-opacity="1" stop-color="rgb(58.364868%, 67.912292%, 20.223999%)" offset="0.378906"/><stop stop-opacity="1" stop-color="rgb(57.9422%, 67.431641%, 20.027161%)" offset="0.382812"/><stop stop-opacity="1" stop-color="rgb(57.518005%, 66.949463%, 19.830322%)" offset="0.386719"/><stop stop-opacity="1" stop-color="rgb(57.095337%, 66.468811%, 19.633484%)" offset="0.390625"/><stop stop-opacity="1" stop-color="rgb(56.671143%, 65.986633%, 19.43512%)" offset="0.394531"/><stop stop-opacity="1" stop-color="rgb(56.248474%, 65.505981%, 19.238281%)" offset="0.398437"/><stop stop-opacity="1" stop-color="rgb(55.82428%, 65.02533%, 19.041443%)" offset="0.402344"/><stop stop-opacity="1" stop-color="rgb(55.401611%, 64.544678%, 18.844604%)" offset="0.40625"/><stop stop-opacity="1" stop-color="rgb(54.977417%, 64.0625%, 18.647766%)" offset="0.410156"/><stop stop-opacity="1" stop-color="rgb(54.554749%, 63.581848%, 18.450928%)" offset="0.414062"/><stop stop-opacity="1" stop-color="rgb(54.837036%, 63.902283%, 18.582153%)" offset="0.417969"/><stop stop-opacity="1" stop-color="rgb(55.119324%, 64.222717%, 18.713379%)" offset="0.421875"/><stop stop-opacity="1" stop-color="rgb(55.441284%, 64.588928%, 18.862915%)" offset="0.425781"/><stop stop-opacity="1" stop-color="rgb(55.763245%, 64.955139%, 19.012451%)" offset="0.429687"/><stop stop-opacity="1" stop-color="rgb(56.085205%, 65.32135%, 19.161987%)" offset="0.433594"/><stop stop-opacity="1" stop-color="rgb(56.407166%, 65.687561%, 19.313049%)" offset="0.4375"/><stop stop-opacity="1" stop-color="rgb(56.729126%, 66.053772%, 19.462585%)" offset="0.441406"/><stop stop-opacity="1" stop-color="rgb(57.051086%, 66.419983%, 19.612122%)" offset="0.445312"/><stop stop-opacity="1" stop-color="rgb(57.373047%, 66.786194%, 19.761658%)" offset="0.449219"/><stop stop-opacity="1" stop-color="rgb(57.695007%, 67.152405%, 19.91272%)" offset="0.453125"/><stop stop-opacity="1" stop-color="rgb(58.016968%, 67.518616%, 20.062256%)" offset="0.457031"/><stop stop-opacity="1" stop-color="rgb(58.340454%, 67.884827%, 20.213318%)" offset="0.460937"/><stop stop-opacity="1" stop-color="rgb(58.662415%, 68.251038%, 20.362854%)" offset="0.464844"/><stop stop-opacity="1" stop-color="rgb(58.984375%, 68.617249%, 20.51239%)" offset="0.46875"/><stop stop-opacity="1" stop-color="rgb(59.306335%, 68.983459%, 20.661926%)" offset="0.472656"/><stop stop-opacity="1" stop-color="rgb(59.628296%, 69.34967%, 20.812988%)" offset="0.476562"/><stop stop-opacity="1" stop-color="rgb(59.950256%, 69.715881%, 20.962524%)" offset="0.480469"/><stop stop-opacity="1" stop-color="rgb(60.272217%, 70.082092%, 21.112061%)" offset="0.484375"/><stop stop-opacity="1" stop-color="rgb(60.594177%, 70.448303%, 21.261597%)" offset="0.488281"/><stop stop-opacity="1" stop-color="rgb(60.916138%, 70.814514%, 21.412659%)" offset="0.492187"/><stop stop-opacity="1" stop-color="rgb(61.238098%, 71.180725%, 21.562195%)" offset="0.496094"/><stop stop-opacity="1" stop-color="rgb(61.561584%, 71.546936%, 21.711731%)" offset="0.5"/><stop stop-opacity="1" stop-color="rgb(61.883545%, 71.913147%, 21.861267%)" offset="0.503906"/><stop stop-opacity="1" stop-color="rgb(62.205505%, 72.279358%, 22.012329%)" offset="0.507812"/><stop stop-opacity="1" stop-color="rgb(62.527466%, 72.645569%, 22.161865%)" offset="0.511719"/><stop stop-opacity="1" stop-color="rgb(62.849426%, 73.01178%, 22.312927%)" offset="0.515625"/><stop stop-opacity="1" stop-color="rgb(63.171387%, 73.377991%, 22.462463%)" offset="0.519531"/><stop stop-opacity="1" stop-color="rgb(63.493347%, 73.744202%, 22.612%)" offset="0.523437"/><stop stop-opacity="1" stop-color="rgb(63.815308%, 74.110413%, 22.761536%)" offset="0.527344"/><stop stop-opacity="1" stop-color="rgb(64.137268%, 74.476624%, 22.912598%)" offset="0.53125"/><stop stop-opacity="1" stop-color="rgb(64.459229%, 74.842834%, 23.062134%)" offset="0.535156"/><stop stop-opacity="1" stop-color="rgb(64.782715%, 75.209045%, 23.21167%)" offset="0.539062"/><stop stop-opacity="1" stop-color="rgb(65.104675%, 75.575256%, 23.361206%)" offset="0.542969"/><stop stop-opacity="1" stop-color="rgb(65.426636%, 75.941467%, 23.512268%)" offset="0.546875"/><stop stop-opacity="1" stop-color="rgb(65.748596%, 76.307678%, 23.661804%)" offset="0.550781"/><stop stop-opacity="1" stop-color="rgb(66.070557%, 76.673889%, 23.81134%)" offset="0.554687"/><stop stop-opacity="1" stop-color="rgb(66.392517%, 77.0401%, 23.960876%)" offset="0.558594"/><stop stop-opacity="1" stop-color="rgb(66.714478%, 77.406311%, 24.111938%)" offset="0.5625"/><stop stop-opacity="1" stop-color="rgb(67.036438%, 77.772522%, 24.261475%)" offset="0.566406"/><stop stop-opacity="1" stop-color="rgb(67.358398%, 78.138733%, 24.412537%)" offset="0.570312"/><stop stop-opacity="1" stop-color="rgb(67.680359%, 78.504944%, 24.562073%)" offset="0.574219"/><stop stop-opacity="1" stop-color="rgb(68.003845%, 78.871155%, 24.711609%)" offset="0.578125"/><stop stop-opacity="1" stop-color="rgb(68.325806%, 79.237366%, 24.861145%)" offset="0.582031"/><stop stop-opacity="1" stop-color="rgb(68.647766%, 79.603577%, 25.012207%)" offset="0.585937"/><stop stop-opacity="1" stop-color="rgb(68.969727%, 79.969788%, 25.161743%)" offset="0.589844"/><stop stop-opacity="1" stop-color="rgb(69.291687%, 80.335999%, 25.311279%)" offset="0.59375"/><stop stop-opacity="1" stop-color="rgb(69.613647%, 80.702209%, 25.460815%)" offset="0.597656"/><stop stop-opacity="1" stop-color="rgb(69.935608%, 81.06842%, 25.611877%)" offset="0.601562"/><stop stop-opacity="1" stop-color="rgb(70.257568%, 81.434631%, 25.761414%)" offset="0.605469"/><stop stop-opacity="1" stop-color="rgb(70.579529%, 81.800842%, 25.91095%)" offset="0.609375"/><stop stop-opacity="1" stop-color="rgb(70.901489%, 82.167053%, 26.060486%)" offset="0.613281"/><stop stop-opacity="1" stop-color="rgb(71.22345%, 82.533264%, 26.211548%)" offset="0.617187"/><stop stop-opacity="1" stop-color="rgb(71.54541%, 82.899475%, 26.361084%)" offset="0.621094"/><stop stop-opacity="1" stop-color="rgb(71.868896%, 83.265686%, 26.512146%)" offset="0.625"/><stop stop-opacity="1" stop-color="rgb(72.190857%, 83.631897%, 26.661682%)" offset="0.628906"/><stop stop-opacity="1" stop-color="rgb(72.512817%, 83.998108%, 26.811218%)" offset="0.632812"/><stop stop-opacity="1" stop-color="rgb(72.834778%, 84.364319%, 26.960754%)" offset="0.636719"/><stop stop-opacity="1" stop-color="rgb(73.156738%, 84.73053%, 27.111816%)" offset="0.640625"/><stop stop-opacity="1" stop-color="rgb(73.478699%, 85.096741%, 27.261353%)" offset="0.644531"/><stop stop-opacity="1" stop-color="rgb(73.800659%, 85.462952%, 27.410889%)" offset="0.648437"/><stop stop-opacity="1" stop-color="rgb(74.12262%, 85.829163%, 27.560425%)" offset="0.652344"/><stop stop-opacity="1" stop-color="rgb(74.44458%, 86.195374%, 27.711487%)" offset="0.65625"/><stop stop-opacity="1" stop-color="rgb(74.766541%, 86.561584%, 27.861023%)" offset="0.660156"/><stop stop-opacity="1" stop-color="rgb(75.090027%, 86.927795%, 28.012085%)" offset="0.664062"/><stop stop-opacity="1" stop-color="rgb(75.411987%, 87.294006%, 28.161621%)" offset="0.667969"/><stop stop-opacity="1" stop-color="rgb(75.733948%, 87.660217%, 28.311157%)" offset="0.671875"/><stop stop-opacity="1" stop-color="rgb(76.055908%, 88.026428%, 28.460693%)" offset="0.675781"/><stop stop-opacity="1" stop-color="rgb(76.377869%, 88.392639%, 28.611755%)" offset="0.679687"/><stop stop-opacity="1" stop-color="rgb(76.699829%, 88.75885%, 28.761292%)" offset="0.683594"/><stop stop-opacity="1" stop-color="rgb(77.02179%, 89.125061%, 28.910828%)" offset="0.6875"/><stop stop-opacity="1" stop-color="rgb(77.34375%, 89.491272%, 29.060364%)" offset="0.691406"/><stop stop-opacity="1" stop-color="rgb(77.66571%, 89.857483%, 29.211426%)" offset="0.695312"/><stop stop-opacity="1" stop-color="rgb(77.987671%, 90.223694%, 29.360962%)" offset="0.699219"/><stop stop-opacity="1" stop-color="rgb(78.311157%, 90.589905%, 29.510498%)" offset="0.703125"/><stop stop-opacity="1" stop-color="rgb(78.633118%, 90.956116%, 29.660034%)" offset="0.707031"/><stop stop-opacity="1" stop-color="rgb(78.955078%, 91.322327%, 29.811096%)" offset="0.710937"/><stop stop-opacity="1" stop-color="rgb(79.277039%, 91.688538%, 29.960632%)" offset="0.714844"/><stop stop-opacity="1" stop-color="rgb(79.598999%, 92.054749%, 30.111694%)" offset="0.71875"/><stop stop-opacity="1" stop-color="rgb(79.920959%, 92.420959%, 30.26123%)" offset="0.722656"/><stop stop-opacity="1" stop-color="rgb(80.24292%, 92.78717%, 30.410767%)" offset="0.726562"/><stop stop-opacity="1" stop-color="rgb(80.56488%, 93.153381%, 30.560303%)" offset="0.730469"/><stop stop-opacity="1" stop-color="rgb(80.886841%, 93.519592%, 30.711365%)" offset="0.734375"/><stop stop-opacity="1" stop-color="rgb(81.208801%, 93.885803%, 30.860901%)" offset="0.738281"/><stop stop-opacity="1" stop-color="rgb(81.532288%, 94.252014%, 31.010437%)" offset="0.742187"/><stop stop-opacity="1" stop-color="rgb(81.854248%, 94.618225%, 31.159973%)" offset="0.746094"/><stop stop-opacity="1" stop-color="rgb(82.176208%, 94.984436%, 31.311035%)" offset="0.75"/><stop stop-opacity="1" stop-color="rgb(82.498169%, 95.350647%, 31.460571%)" offset="0.753906"/><stop stop-opacity="1" stop-color="rgb(82.820129%, 95.716858%, 31.610107%)" offset="0.757812"/><stop stop-opacity="1" stop-color="rgb(83.184814%, 95.960999%, 32.440186%)" offset="0.761719"/><stop stop-opacity="1" stop-color="rgb(83.5495%, 96.206665%, 33.270264%)" offset="0.765625"/><stop stop-opacity="1" stop-color="rgb(83.953857%, 96.333313%, 34.767151%)" offset="0.769531"/><stop stop-opacity="1" stop-color="rgb(84.359741%, 96.461487%, 36.264038%)" offset="0.773437"/><stop stop-opacity="1" stop-color="rgb(84.765625%, 96.588135%, 37.760925%)" offset="0.777344"/><stop stop-opacity="1" stop-color="rgb(85.171509%, 96.714783%, 39.257812%)" offset="0.78125"/><stop stop-opacity="1" stop-color="rgb(85.575867%, 96.841431%, 40.7547%)" offset="0.785156"/><stop stop-opacity="1" stop-color="rgb(85.98175%, 96.968079%, 42.253113%)" offset="0.789062"/><stop stop-opacity="1" stop-color="rgb(86.387634%, 97.094727%, 43.75%)" offset="0.792969"/><stop stop-opacity="1" stop-color="rgb(86.793518%, 97.221375%, 45.246887%)" offset="0.796875"/><stop stop-opacity="1" stop-color="rgb(87.199402%, 97.348022%, 46.743774%)" offset="0.800781"/><stop stop-opacity="1" stop-color="rgb(87.605286%, 97.47467%, 48.240662%)" offset="0.804688"/><stop stop-opacity="1" stop-color="rgb(88.009644%, 97.601318%, 49.737549%)" offset="0.808594"/><stop stop-opacity="1" stop-color="rgb(88.415527%, 97.729492%, 51.234436%)" offset="0.8125"/><stop stop-opacity="1" stop-color="rgb(88.821411%, 97.85614%, 52.731323%)" offset="0.816406"/><stop stop-opacity="1" stop-color="rgb(89.227295%, 97.982788%, 54.22821%)" offset="0.820312"/><stop stop-opacity="1" stop-color="rgb(89.317322%, 98.010254%, 54.563904%)" offset="0.824219"/><stop stop-opacity="1" stop-color="rgb(89.408875%, 98.039246%, 54.899597%)" offset="0.828125"/><stop stop-opacity="1" stop-color="rgb(89.408875%, 98.039246%, 54.899597%)" offset="0.84375"/><stop stop-opacity="1" stop-color="rgb(89.408875%, 98.039246%, 54.899597%)" offset="0.875"/><stop stop-opacity="1" stop-color="rgb(89.408875%, 98.039246%, 54.899597%)" offset="1"/></linearGradient><clipPath id="f5900d226b"><path d="M 123.410156 82.570312 L 256.738281 82.570312 L 256.738281 183 L 123.410156 183 Z M 123.410156 82.570312 " clip-rule="nonzero"/></clipPath><clipPath id="413710e36d"><path d="M 186.117188 84.414062 L 125.199219 146.195312 C 124.164062 147.242188 123.582031 148.65625 123.582031 150.128906 L 123.582031 179.359375 C 123.582031 181.8125 126.035156 183.507812 128.328125 182.640625 L 169.703125 167.015625 C 171.191406 166.453125 172.371094 165.285156 172.945312 163.800781 L 187.714844 125.808594 C 188.5625 123.625 191.652344 123.625 192.5 125.808594 L 207.265625 163.800781 C 207.84375 165.285156 209.023438 166.453125 210.511719 167.015625 L 251.886719 182.640625 C 254.179688 183.507812 256.628906 181.8125 256.628906 179.359375 L 256.628906 150.128906 C 256.628906 148.65625 256.050781 147.242188 255.015625 146.195312 L 194.097656 84.414062 C 191.902344 82.1875 188.3125 82.1875 186.117188 84.414062 Z M 186.117188 84.414062 " clip-rule="nonzero"/></clipPath><clipPath id="133fb57890"><path d="M 0.582031 0.742188 L 133.566406 0.742188 L 133.566406 100.871094 L 0.582031 100.871094 Z M 0.582031 0.742188 " clip-rule="nonzero"/></clipPath><clipPath id="6c457c2b33"><path d="M 63.117188 2.414062 L 2.199219 64.195312 C 1.164062 65.242188 0.582031 66.65625 0.582031 68.128906 L 0.582031 97.359375 C 0.582031 99.8125 3.035156 101.507812 5.328125 100.640625 L 46.703125 85.015625 C 48.191406 84.453125 49.371094 83.285156 49.945312 81.800781 L 64.714844 43.808594 C 65.5625 41.625 68.652344 41.625 69.5 43.808594 L 84.265625 81.800781 C 84.84375 83.285156 86.023438 84.453125 87.511719 85.015625 L 128.886719 100.640625 C 131.179688 101.507812 133.628906 99.8125 133.628906 97.359375 L 133.628906 68.128906 C 133.628906 66.65625 133.050781 65.242188 132.015625 64.195312 L 71.097656 2.414062 C 68.902344 0.1875 65.3125 0.1875 63.117188 2.414062 Z M 63.117188 2.414062 " clip-rule="nonzero"/></clipPath><linearGradient x1="0.00680193" gradientTransform="matrix(0.172929, 0, 0, 0.172929, 0.582107, 0.743655)" y1="289.5" x2="769.00683" gradientUnits="userSpaceOnUse" y2="289.5" id="ac7be477a3"><stop stop-opacity="1" stop-color="rgb(69.40918%, 83.139038%, 15.689087%)" offset="0"/><stop stop-opacity="1" stop-color="rgb(69.329834%, 83.023071%, 15.737915%)" offset="0.015625"/><stop stop-opacity="1" stop-color="rgb(69.169617%, 82.789612%, 15.835571%)" offset="0.03125"/><stop stop-opacity="1" stop-color="rgb(69.010925%, 82.557678%, 15.933228%)" offset="0.046875"/><stop stop-opacity="1" stop-color="rgb(68.852234%, 82.324219%, 16.03241%)" offset="0.0625"/><stop stop-opacity="1" stop-color="rgb(68.693542%, 82.092285%, 16.130066%)" offset="0.078125"/><stop stop-opacity="1" stop-color="rgb(68.533325%, 81.858826%, 16.227722%)" offset="0.09375"/><stop stop-opacity="1" stop-color="rgb(68.374634%, 81.626892%, 16.325378%)" offset="0.109375"/><stop stop-opacity="1" stop-color="rgb(68.215942%, 81.393433%, 16.423035%)" offset="0.125"/><stop stop-opacity="1" stop-color="rgb(68.055725%, 81.161499%, 16.522217%)" offset="0.140625"/><stop stop-opacity="1" stop-color="rgb(67.897034%, 80.92804%, 16.619873%)" offset="0.15625"/><stop stop-opacity="1" stop-color="rgb(67.738342%, 80.696106%, 16.717529%)" offset="0.171875"/><stop stop-opacity="1" stop-color="rgb(67.578125%, 80.462646%, 16.815186%)" offset="0.1875"/><stop stop-opacity="1" stop-color="rgb(67.419434%, 80.230713%, 16.912842%)" offset="0.203125"/><stop stop-opacity="1" stop-color="rgb(67.260742%, 79.997253%, 17.010498%)" offset="0.21875"/><stop stop-opacity="1" stop-color="rgb(67.102051%, 79.76532%, 17.10968%)" offset="0.234375"/><stop stop-opacity="1" stop-color="rgb(66.941833%, 79.53186%, 17.207336%)" offset="0.25"/><stop stop-opacity="1" stop-color="rgb(66.783142%, 79.299927%, 17.304993%)" offset="0.265625"/><stop stop-opacity="1" stop-color="rgb(66.624451%, 79.066467%, 17.402649%)" offset="0.28125"/><stop stop-opacity="1" stop-color="rgb(66.464233%, 78.834534%, 17.500305%)" offset="0.296875"/><stop stop-opacity="1" stop-color="rgb(66.305542%, 78.601074%, 17.597961%)" offset="0.3125"/><stop stop-opacity="1" stop-color="rgb(66.146851%, 78.369141%, 17.697144%)" offset="0.328125"/><stop stop-opacity="1" stop-color="rgb(65.986633%, 78.135681%, 17.7948%)" offset="0.34375"/><stop stop-opacity="1" stop-color="rgb(65.827942%, 77.902222%, 17.892456%)" offset="0.359375"/><stop stop-opacity="1" stop-color="rgb(65.66925%, 77.670288%, 17.990112%)" offset="0.375"/><stop stop-opacity="1" stop-color="rgb(65.510559%, 77.436829%, 18.087769%)" offset="0.390625"/><stop stop-opacity="1" stop-color="rgb(65.350342%, 77.204895%, 18.185425%)" offset="0.40625"/><stop stop-opacity="1" stop-color="rgb(65.19165%, 76.971436%, 18.284607%)" offset="0.421875"/><stop stop-opacity="1" stop-color="rgb(65.032959%, 76.739502%, 18.382263%)" offset="0.4375"/><stop stop-opacity="1" stop-color="rgb(64.872742%, 76.506042%, 18.479919%)" offset="0.453125"/><stop stop-opacity="1" stop-color="rgb(64.71405%, 76.274109%, 18.577576%)" offset="0.46875"/><stop stop-opacity="1" stop-color="rgb(64.555359%, 76.040649%, 18.675232%)" offset="0.484375"/><stop stop-opacity="1" stop-color="rgb(64.396667%, 75.808716%, 18.774414%)" offset="0.5"/><stop stop-opacity="1" stop-color="rgb(64.23645%, 75.575256%, 18.87207%)" offset="0.515625"/><stop stop-opacity="1" stop-color="rgb(64.077759%, 75.343323%, 18.969727%)" offset="0.53125"/><stop stop-opacity="1" stop-color="rgb(63.919067%, 75.109863%, 19.067383%)" offset="0.546875"/><stop stop-opacity="1" stop-color="rgb(63.75885%, 74.87793%, 19.165039%)" offset="0.5625"/><stop stop-opacity="1" stop-color="rgb(63.600159%, 74.64447%, 19.262695%)" offset="0.578125"/><stop stop-opacity="1" stop-color="rgb(63.441467%, 74.412537%, 19.361877%)" offset="0.59375"/><stop stop-opacity="1" stop-color="rgb(63.28125%, 74.179077%, 19.459534%)" offset="0.609375"/><stop stop-opacity="1" stop-color="rgb(63.122559%, 73.947144%, 19.55719%)" offset="0.625"/><stop stop-opacity="1" stop-color="rgb(62.963867%, 73.713684%, 19.654846%)" offset="0.640625"/><stop stop-opacity="1" stop-color="rgb(62.805176%, 73.48175%, 19.752502%)" offset="0.65625"/><stop stop-opacity="1" stop-color="rgb(62.644958%, 73.248291%, 19.850159%)" offset="0.671875"/><stop stop-opacity="1" stop-color="rgb(62.486267%, 73.016357%, 19.949341%)" offset="0.6875"/><stop stop-opacity="1" stop-color="rgb(62.327576%, 72.782898%, 20.046997%)" offset="0.703125"/><stop stop-opacity="1" stop-color="rgb(62.167358%, 72.550964%, 20.144653%)" offset="0.71875"/><stop stop-opacity="1" stop-color="rgb(62.008667%, 72.317505%, 20.24231%)" offset="0.734375"/><stop stop-opacity="1" stop-color="rgb(61.849976%, 72.085571%, 20.339966%)" offset="0.75"/><stop stop-opacity="1" stop-color="rgb(61.691284%, 71.852112%, 20.437622%)" offset="0.765625"/><stop stop-opacity="1" stop-color="rgb(61.531067%, 71.620178%, 20.536804%)" offset="0.78125"/><stop stop-opacity="1" stop-color="rgb(61.372375%, 71.386719%, 20.63446%)" offset="0.796875"/><stop stop-opacity="1" stop-color="rgb(61.213684%, 71.154785%, 20.732117%)" offset="0.8125"/><stop stop-opacity="1" stop-color="rgb(61.053467%, 70.921326%, 20.829773%)" offset="0.828125"/><stop stop-opacity="1" stop-color="rgb(60.894775%, 70.689392%, 20.927429%)" offset="0.84375"/><stop stop-opacity="1" stop-color="rgb(60.736084%, 70.455933%, 21.026611%)" offset="0.859375"/><stop stop-opacity="1" stop-color="rgb(60.575867%, 70.223999%, 21.124268%)" offset="0.875"/><stop stop-opacity="1" stop-color="rgb(60.417175%, 69.99054%, 21.221924%)" offset="0.890625"/><stop stop-opacity="1" stop-color="rgb(60.258484%, 69.758606%, 21.31958%)" offset="0.90625"/><stop stop-opacity="1" stop-color="rgb(60.099792%, 69.525146%, 21.417236%)" offset="0.921875"/><stop stop-opacity="1" stop-color="rgb(59.939575%, 69.293213%, 21.514893%)" offset="0.9375"/><stop stop-opacity="1" stop-color="rgb(59.780884%, 69.059753%, 21.614075%)" offset="0.953125"/><stop stop-opacity="1" stop-color="rgb(59.622192%, 68.82782%, 21.711731%)" offset="0.96875"/><stop stop-opacity="1" stop-color="rgb(59.461975%, 68.59436%, 21.809387%)" offset="0.984375"/><stop stop-opacity="1" stop-color="rgb(59.303284%, 68.362427%, 21.907043%)" offset="1"/></linearGradient><clipPath id="be5c431a6b"><rect x="0" width="134" y="0" height="101"/></clipPath><clipPath id="7a69751e0c"><path d="M 86.753906 185.886719 L 294.1875 185.886719 L 294.1875 292.632812 L 86.753906 292.632812 Z M 86.753906 185.886719 " clip-rule="nonzero"/></clipPath><clipPath id="18774c7200"><path d="M 253.976562 186.269531 L 211.183594 202.933594 C 209.75 203.492188 208.609375 204.613281 208.03125 206.035156 L 192.761719 243.390625 C 191.890625 245.523438 188.878906 245.523438 188.007812 243.390625 L 172.742188 206.035156 C 172.160156 204.613281 171.019531 203.492188 169.589844 202.933594 L 126.792969 186.269531 C 124.648438 185.433594 122.214844 185.996094 120.652344 187.683594 L 88.246094 222.675781 C 87.285156 223.714844 86.753906 225.070312 86.753906 226.480469 L 86.753906 288.96875 C 86.753906 292.085938 90.527344 293.636719 92.71875 291.421875 L 134.808594 248.875 C 136.914062 246.746094 140.320312 246.648438 142.542969 248.652344 L 186.632812 288.421875 C 188.765625 290.347656 192.003906 290.347656 194.136719 288.421875 L 238.226562 248.652344 C 240.453125 246.648438 243.859375 246.746094 245.964844 248.875 L 288.050781 291.421875 C 290.242188 293.636719 294.015625 292.085938 294.015625 288.96875 L 294.015625 226.480469 C 294.015625 225.070312 293.484375 223.714844 292.523438 222.675781 L 260.121094 187.683594 C 258.558594 185.996094 256.121094 185.433594 253.976562 186.269531 Z M 253.976562 186.269531 " clip-rule="nonzero"/></clipPath><clipPath id="eca5cd2d6b"><path d="M 0.753906 0.886719 L 208.015625 0.886719 L 208.015625 107.460938 L 0.753906 107.460938 Z M 0.753906 0.886719 " clip-rule="nonzero"/></clipPath><clipPath id="351e1910e1"><path d="M 167.976562 1.269531 L 125.183594 17.933594 C 123.75 18.492188 122.609375 19.613281 122.03125 21.035156 L 106.761719 58.390625 C 105.890625 60.523438 102.878906 60.523438 102.007812 58.390625 L 86.742188 21.035156 C 86.160156 19.613281 85.019531 18.492188 83.589844 17.933594 L 40.792969 1.269531 C 38.648438 0.433594 36.214844 0.996094 34.652344 2.683594 L 2.246094 37.675781 C 1.285156 38.714844 0.753906 40.070312 0.753906 41.480469 L 0.753906 103.96875 C 0.753906 107.085938 4.527344 108.636719 6.71875 106.421875 L 48.808594 63.875 C 50.914062 61.746094 54.320312 61.648438 56.542969 63.652344 L 100.632812 103.421875 C 102.765625 105.347656 106.003906 105.347656 108.136719 103.421875 L 152.226562 63.652344 C 154.453125 61.648438 157.859375 61.746094 159.964844 63.875 L 202.050781 106.421875 C 204.242188 108.636719 208.015625 107.085938 208.015625 103.96875 L 208.015625 41.480469 C 208.015625 40.070312 207.484375 38.714844 206.523438 37.675781 L 174.121094 2.683594 C 172.558594 0.996094 170.121094 0.433594 167.976562 1.269531 Z M 167.976562 1.269531 " clip-rule="nonzero"/></clipPath><linearGradient x1="0.000416055" gradientTransform="matrix(0.173007, 0, 0, 0.173007, 0.753896, 0.886236)" y1="308.01001" x2="1198" gradientUnits="userSpaceOnUse" y2="308.01001" id="69e782b0bb"><stop stop-opacity="1" stop-color="rgb(69.40918%, 83.139038%, 15.689087%)" offset="0"/><stop stop-opacity="1" stop-color="rgb(69.329834%, 83.023071%, 15.737915%)" offset="0.015625"/><stop stop-opacity="1" stop-color="rgb(69.169617%, 82.789612%, 15.835571%)" offset="0.03125"/><stop stop-opacity="1" stop-color="rgb(69.010925%, 82.556152%, 15.934753%)" offset="0.046875"/><stop stop-opacity="1" stop-color="rgb(68.852234%, 82.324219%, 16.03241%)" offset="0.0625"/><stop stop-opacity="1" stop-color="rgb(68.692017%, 82.090759%, 16.130066%)" offset="0.078125"/><stop stop-opacity="1" stop-color="rgb(68.533325%, 81.858826%, 16.227722%)" offset="0.09375"/><stop stop-opacity="1" stop-color="rgb(68.374634%, 81.625366%, 16.325378%)" offset="0.109375"/><stop stop-opacity="1" stop-color="rgb(68.214417%, 81.393433%, 16.424561%)" offset="0.125"/><stop stop-opacity="1" stop-color="rgb(68.055725%, 81.159973%, 16.522217%)" offset="0.140625"/><stop stop-opacity="1" stop-color="rgb(67.897034%, 80.926514%, 16.619873%)" offset="0.15625"/><stop stop-opacity="1" stop-color="rgb(67.736816%, 80.69458%, 16.717529%)" offset="0.171875"/><stop stop-opacity="1" stop-color="rgb(67.578125%, 80.461121%, 16.815186%)" offset="0.1875"/><stop stop-opacity="1" stop-color="rgb(67.419434%, 80.229187%, 16.914368%)" offset="0.203125"/><stop stop-opacity="1" stop-color="rgb(67.259216%, 79.995728%, 17.012024%)" offset="0.21875"/><stop stop-opacity="1" stop-color="rgb(67.100525%, 79.762268%, 17.10968%)" offset="0.234375"/><stop stop-opacity="1" stop-color="rgb(66.941833%, 79.530334%, 17.207336%)" offset="0.25"/><stop stop-opacity="1" stop-color="rgb(66.781616%, 79.296875%, 17.304993%)" offset="0.265625"/><stop stop-opacity="1" stop-color="rgb(66.622925%, 79.064941%, 17.404175%)" offset="0.28125"/><stop stop-opacity="1" stop-color="rgb(66.462708%, 78.831482%, 17.501831%)" offset="0.296875"/><stop stop-opacity="1" stop-color="rgb(66.304016%, 78.599548%, 17.599487%)" offset="0.3125"/><stop stop-opacity="1" stop-color="rgb(66.145325%, 78.366089%, 17.697144%)" offset="0.328125"/><stop stop-opacity="1" stop-color="rgb(65.985107%, 78.132629%, 17.7948%)" offset="0.34375"/><stop stop-opacity="1" stop-color="rgb(65.826416%, 77.900696%, 17.893982%)" offset="0.359375"/><stop stop-opacity="1" stop-color="rgb(65.667725%, 77.667236%, 17.991638%)" offset="0.375"/><stop stop-opacity="1" stop-color="rgb(65.507507%, 77.435303%, 18.089294%)" offset="0.390625"/><stop stop-opacity="1" stop-color="rgb(65.348816%, 77.201843%, 18.186951%)" offset="0.40625"/><stop stop-opacity="1" stop-color="rgb(65.190125%, 76.96991%, 18.284607%)" offset="0.421875"/><stop stop-opacity="1" stop-color="rgb(65.029907%, 76.73645%, 18.383789%)" offset="0.4375"/><stop stop-opacity="1" stop-color="rgb(64.871216%, 76.502991%, 18.481445%)" offset="0.453125"/><stop stop-opacity="1" stop-color="rgb(64.712524%, 76.271057%, 18.579102%)" offset="0.46875"/><stop stop-opacity="1" stop-color="rgb(64.552307%, 76.037598%, 18.676758%)" offset="0.484375"/><stop stop-opacity="1" stop-color="rgb(64.393616%, 75.805664%, 18.774414%)" offset="0.5"/><stop stop-opacity="1" stop-color="rgb(64.234924%, 75.572205%, 18.873596%)" offset="0.515625"/><stop stop-opacity="1" stop-color="rgb(64.074707%, 75.340271%, 18.971252%)" offset="0.53125"/><stop stop-opacity="1" stop-color="rgb(63.916016%, 75.106812%, 19.068909%)" offset="0.546875"/><stop stop-opacity="1" stop-color="rgb(63.757324%, 74.873352%, 19.166565%)" offset="0.5625"/><stop stop-opacity="1" stop-color="rgb(63.597107%, 74.641418%, 19.264221%)" offset="0.578125"/><stop stop-opacity="1" stop-color="rgb(63.438416%, 74.407959%, 19.363403%)" offset="0.59375"/><stop stop-opacity="1" stop-color="rgb(63.279724%, 74.176025%, 19.46106%)" offset="0.609375"/><stop stop-opacity="1" stop-color="rgb(63.119507%, 73.942566%, 19.558716%)" offset="0.625"/><stop stop-opacity="1" stop-color="rgb(62.960815%, 73.710632%, 19.656372%)" offset="0.640625"/><stop stop-opacity="1" stop-color="rgb(62.802124%, 73.477173%, 19.754028%)" offset="0.65625"/><stop stop-opacity="1" stop-color="rgb(62.641907%, 73.243713%, 19.85321%)" offset="0.671875"/><stop stop-opacity="1" stop-color="rgb(62.483215%, 73.01178%, 19.950867%)" offset="0.6875"/><stop stop-opacity="1" stop-color="rgb(62.322998%, 72.77832%, 20.048523%)" offset="0.703125"/><stop stop-opacity="1" stop-color="rgb(62.164307%, 72.546387%, 20.146179%)" offset="0.71875"/><stop stop-opacity="1" stop-color="rgb(62.005615%, 72.312927%, 20.245361%)" offset="0.734375"/><stop stop-opacity="1" stop-color="rgb(61.845398%, 72.079468%, 20.343018%)" offset="0.75"/><stop stop-opacity="1" stop-color="rgb(61.686707%, 71.847534%, 20.440674%)" offset="0.765625"/><stop stop-opacity="1" stop-color="rgb(61.528015%, 71.614075%, 20.53833%)" offset="0.78125"/><stop stop-opacity="1" stop-color="rgb(61.367798%, 71.382141%, 20.635986%)" offset="0.796875"/><stop stop-opacity="1" stop-color="rgb(61.209106%, 71.148682%, 20.735168%)" offset="0.8125"/><stop stop-opacity="1" stop-color="rgb(61.050415%, 70.916748%, 20.832825%)" offset="0.828125"/><stop stop-opacity="1" stop-color="rgb(60.890198%, 70.683289%, 20.930481%)" offset="0.84375"/><stop stop-opacity="1" stop-color="rgb(60.731506%, 70.449829%, 21.028137%)" offset="0.859375"/><stop stop-opacity="1" stop-color="rgb(60.572815%, 70.217896%, 21.125793%)" offset="0.875"/><stop stop-opacity="1" stop-color="rgb(60.412598%, 69.984436%, 21.224976%)" offset="0.890625"/><stop stop-opacity="1" stop-color="rgb(60.253906%, 69.752502%, 21.322632%)" offset="0.90625"/><stop stop-opacity="1" stop-color="rgb(60.095215%, 69.519043%, 21.420288%)" offset="0.921875"/><stop stop-opacity="1" stop-color="rgb(59.934998%, 69.287109%, 21.517944%)" offset="0.9375"/><stop stop-opacity="1" stop-color="rgb(59.776306%, 69.05365%, 21.615601%)" offset="0.953125"/><stop stop-opacity="1" stop-color="rgb(59.617615%, 68.82019%, 21.714783%)" offset="0.96875"/><stop stop-opacity="1" stop-color="rgb(59.457397%, 68.588257%, 21.812439%)" offset="0.984375"/><stop stop-opacity="1" stop-color="rgb(59.298706%, 68.354797%, 21.910095%)" offset="1"/></linearGradient><clipPath id="c36a29f4ef"><rect x="0" width="209" y="0" height="108"/></clipPath></defs><g clip-path="url(#b997d491eb)"><g transform="matrix(1, 0, 0, 1, 410, 0)"><g clip-path="url(#41868199b6)"><g fill="#0f0f0e" fill-opacity="1"><g transform="translate(0.0997066, 304.365409)"><g><path d="M 90.921875 22.90625 C 104.078125 22.90625 114.117188 20.320312 121.046875 15.15625 C 127.972656 9.988281 132.671875 3.351562 135.140625 -4.75 C 137.609375 -12.863281 138.84375 -21.03125 138.84375 -29.25 L 138.84375 -35.59375 C 134.375 -29.25 127.441406 -23.785156 118.046875 -19.203125 C 108.648438 -14.617188 97.140625 -12.328125 83.515625 -12.328125 C 66.835938 -12.328125 53.679688 -15.613281 44.046875 -22.1875 C 34.410156 -28.769531 27.65625 -37.816406 23.78125 -49.328125 C 19.90625 -60.847656 17.96875 -74.125 17.96875 -89.15625 L 17.96875 -181.484375 L 67.65625 -181.484375 L 67.65625 -87.390625 C 67.65625 -76.347656 69.945312 -67.710938 74.53125 -61.484375 C 79.113281 -55.265625 87.507812 -52.15625 99.71875 -52.15625 C 110.757812 -52.15625 119.097656 -54.796875 124.734375 -60.078125 C 130.378906 -65.367188 135.195312 -72.828125 139.1875 -82.453125 L 139.1875 -181.484375 L 188.171875 -181.484375 L 188.171875 -28.546875 C 188.171875 -9.753906 185.234375 5.75 179.359375 17.96875 C 173.492188 30.1875 165.921875 39.703125 156.640625 46.515625 C 147.359375 53.328125 137.429688 58.082031 126.859375 60.78125 C 116.285156 63.488281 106.1875 64.84375 96.5625 64.84375 C 92.09375 64.84375 87.035156 64.609375 81.390625 64.140625 C 75.753906 63.671875 70.941406 62.726562 66.953125 61.3125 L 66.953125 20.09375 C 69.773438 20.789062 73.0625 21.429688 76.8125 22.015625 C 80.570312 22.609375 85.273438 22.90625 90.921875 22.90625 Z M 90.921875 22.90625 "/></g></g></g><g fill="#0f0f0e" fill-opacity="1"><g transform="translate(195.317137, 304.365409)"><g><path d="M 202.265625 -87.046875 C 202.265625 -69.890625 198.445312 -54.378906 190.8125 -40.515625 C 183.175781 -26.660156 172.253906 -15.617188 158.046875 -7.390625 C 143.835938 0.824219 126.628906 4.9375 106.421875 4.9375 C 86.453125 4.9375 69.359375 0.824219 55.140625 -7.390625 C 40.929688 -15.617188 30.007812 -26.660156 22.375 -40.515625 C 14.738281 -54.378906 10.921875 -69.890625 10.921875 -87.046875 C 10.921875 -107.710938 15.03125 -125.445312 23.25 -140.25 C 31.476562 -155.050781 42.816406 -166.445312 57.265625 -174.4375 C 71.710938 -182.425781 88.097656 -186.421875 106.421875 -186.421875 C 124.742188 -186.421875 141.128906 -182.425781 155.578125 -174.4375 C 170.023438 -166.445312 181.414062 -155.050781 189.75 -140.25 C 198.09375 -125.445312 202.265625 -107.710938 202.265625 -87.046875 Z M 152.234375 -89.5 C 152.234375 -105.476562 148.0625 -118.28125 139.71875 -127.90625 C 131.382812 -137.539062 120.285156 -142.359375 106.421875 -142.359375 C 92.554688 -142.359375 81.453125 -137.539062 73.109375 -127.90625 C 64.773438 -118.28125 60.609375 -105.476562 60.609375 -89.5 C 60.609375 -80.34375 62.367188 -71.945312 65.890625 -64.3125 C 69.421875 -56.675781 74.59375 -50.507812 81.40625 -45.8125 C 88.21875 -41.113281 96.554688 -38.765625 106.421875 -38.765625 C 116.523438 -38.765625 124.921875 -41.113281 131.609375 -45.8125 C 138.304688 -50.507812 143.414062 -56.675781 146.9375 -64.3125 C 150.46875 -71.945312 152.234375 -80.34375 152.234375 -89.5 Z M 152.234375 -89.5 "/></g></g></g><g fill="#0f0f0e" fill-opacity="1"><g transform="translate(401.458462, 304.365409)"><g><path d="M 2.46875 -150.125 L 4.9375 -181.484375 L 20.4375 -181.484375 C 22.550781 -208.265625 30.890625 -227.523438 45.453125 -239.265625 C 60.023438 -251.015625 78.703125 -256.890625 101.484375 -256.890625 C 104.304688 -256.890625 106.832031 -256.832031 109.0625 -256.71875 C 111.289062 -256.601562 113.347656 -256.425781 115.234375 -256.1875 L 115.234375 -217.421875 C 113.347656 -217.660156 111.46875 -217.78125 109.59375 -217.78125 C 107.71875 -217.78125 105.835938 -217.78125 103.953125 -217.78125 C 94.085938 -217.78125 86.21875 -215.429688 80.34375 -210.734375 C 74.46875 -206.035156 71.53125 -198.867188 71.53125 -189.234375 L 71.53125 -181.484375 L 112.0625 -181.484375 L 112.0625 -150.125 L 70.484375 -150.125 L 70.484375 0 L 19.734375 0 L 19.734375 -150.125 Z M 2.46875 -150.125 "/></g></g></g><g fill="#0f0f0e" fill-opacity="1"><g transform="translate(515.276416, 304.365409)"><g><path d="M 68.015625 0 L 20.09375 0 L 20.09375 -181.484375 L 68.015625 -181.484375 Z M 68.015625 -199.8125 L 20.09375 -199.8125 L 20.09375 -254.421875 L 68.015625 -254.421875 Z M 68.015625 -199.8125 "/></g></g></g><g fill="#0f0f0e" fill-opacity="1"><g transform="translate(596.323167, 304.365409)"><g><path d="M 195.921875 -106.0625 L 65.890625 -68.015625 C 69.421875 -58.617188 75.117188 -51.097656 82.984375 -45.453125 C 90.859375 -39.816406 100.429688 -37 111.703125 -37 C 122.046875 -37 131.738281 -39.992188 140.78125 -45.984375 C 149.820312 -51.972656 155.867188 -60.609375 158.921875 -71.890625 L 199.453125 -58.140625 C 195.222656 -44.515625 188.410156 -32.941406 179.015625 -23.421875 C 169.617188 -13.910156 158.632812 -6.75 146.0625 -1.9375 C 133.5 2.871094 120.050781 5.28125 105.71875 5.28125 C 87.625 5.28125 71.585938 0.878906 57.609375 -7.921875 C 43.640625 -16.734375 32.660156 -28.597656 24.671875 -43.515625 C 16.679688 -58.429688 12.6875 -75.171875 12.6875 -93.734375 C 12.6875 -112.765625 16.914062 -129.207031 25.375 -143.0625 C 33.832031 -156.925781 45.285156 -167.617188 59.734375 -175.140625 C 74.179688 -182.660156 90.210938 -186.421875 107.828125 -186.421875 C 124.035156 -186.421875 138.363281 -183.128906 150.8125 -176.546875 C 163.269531 -169.972656 173.429688 -160.632812 181.296875 -148.53125 C 189.171875 -136.4375 194.046875 -122.28125 195.921875 -106.0625 Z M 105.015625 -148 C 90.453125 -148 79.175781 -143.066406 71.1875 -133.203125 C 63.195312 -123.335938 59.203125 -111.003906 59.203125 -96.203125 L 144.484375 -122.28125 C 139.078125 -139.425781 125.921875 -148 105.015625 -148 Z M 105.015625 -148 "/></g></g></g><g fill="#0f0f0e" fill-opacity="1"><g transform="translate(799.645451, 304.365409)"><g><path d="M 67.65625 0 L 19.03125 0 L 19.03125 -254.421875 L 67.65625 -254.421875 Z M 67.65625 0 "/></g></g></g><g fill="#0f0f0e" fill-opacity="1"><g transform="translate(879.28269, 304.365409)"><g><path d="M 199.453125 -254.421875 L 199.453125 0 L 157.515625 0 L 152.9375 -22.546875 C 149.882812 -18.085938 145.066406 -13.742188 138.484375 -9.515625 C 131.910156 -5.285156 124.394531 -1.820312 115.9375 0.875 C 107.476562 3.582031 98.664062 4.9375 89.5 4.9375 C 75.875 4.9375 64.1875 2.230469 54.4375 -3.171875 C 44.6875 -8.578125 36.695312 -15.914062 30.46875 -25.1875 C 24.25 -34.46875 19.613281 -44.921875 16.5625 -56.546875 C 13.507812 -68.179688 11.984375 -80.34375 11.984375 -93.03125 C 11.984375 -110.175781 14.742188 -125.796875 20.265625 -139.890625 C 25.785156 -153.992188 34.300781 -165.273438 45.8125 -173.734375 C 57.320312 -182.191406 72.003906 -186.421875 89.859375 -186.421875 C 98.785156 -186.421875 107.300781 -185.066406 115.40625 -182.359375 C 123.507812 -179.660156 130.613281 -176.195312 136.71875 -171.96875 C 142.832031 -167.738281 147.414062 -163.273438 150.46875 -158.578125 L 150.46875 -254.421875 Z M 104.3125 -142.359375 C 89.269531 -142.359375 78.398438 -137.71875 71.703125 -128.4375 C 65.015625 -119.164062 61.671875 -106.773438 61.671875 -91.265625 C 61.671875 -75.523438 65.015625 -63.25 71.703125 -54.4375 C 78.398438 -45.632812 89.269531 -41.234375 104.3125 -41.234375 C 118.632812 -41.234375 130.023438 -45.695312 138.484375 -54.625 C 146.941406 -63.550781 151.171875 -75.765625 151.171875 -91.265625 C 151.171875 -106.773438 147 -119.164062 138.65625 -128.4375 C 130.320312 -137.71875 118.875 -142.359375 104.3125 -142.359375 Z M 104.3125 -142.359375 "/></g></g></g></g></g></g><g clip-path="url(#e8684c3de1)"><g clip-path="url(#4372af47f9)"><path fill="url(#f669550c65)" d="M 556.660156 176.582031 L 179.578125 -178.761719 L -175.855469 198.410156 L 201.226562 553.757812 Z M 556.660156 176.582031 " fill-rule="nonzero"/></g></g><g clip-path="url(#f5900d226b)"><g clip-path="url(#413710e36d)"><g transform="matrix(1, 0, 0, 1, 123, 82)"><g clip-path="url(#be5c431a6b)"><g clip-path="url(#133fb57890)"><g clip-path="url(#6c457c2b33)"><path fill="url(#ac7be477a3)" d="M 0.582031 0.742188 L 0.582031 100.871094 L 133.566406 100.871094 L 133.566406 0.742188 Z M 0.582031 0.742188 " fill-rule="nonzero"/></g></g></g></g></g></g><g clip-path="url(#7a69751e0c)"><g clip-path="url(#18774c7200)"><g transform="matrix(1, 0, 0, 1, 86, 185)"><g clip-path="url(#c36a29f4ef)"><g clip-path="url(#eca5cd2d6b)"><g clip-path="url(#351e1910e1)"><path fill="url(#69e782b0bb)" d="M 0.753906 0.886719 L 0.753906 107.460938 L 208.015625 107.460938 L 208.015625 0.886719 Z M 0.753906 0.886719 " fill-rule="nonzero"/></g></g></g></g></g></g></svg>